<svg width="2088" height="1464" viewBox="0 0 2088 1464" fill="none" xmlns="http://www.w3.org/2000/svg">
<rect width="2088" height="1464" fill="white"/>
<path d="M231.821 632.28C230.237 632.28 228.923 632.586 227.879 633.198C226.835 633.81 226.079 634.584 225.611 635.52L226.367 630.12L251.963 630.12L252.719 635.52C252.251 634.584 251.495 633.81 250.451 633.198C249.407 632.586 248.093 632.28 246.509 632.28L241.109 632.28L241.109 662.25C241.109 663.69 241.289 664.788 241.649 665.544C242.009 666.3 242.405 666.804 242.837 667.056C243.269 667.308 243.485 667.38 243.485 667.272L234.899 667.272C234.899 667.38 235.115 667.308 235.547 667.056C235.979 666.804 236.357 666.318 236.681 665.598C237.041 664.842 237.221 663.726 237.221 662.25L237.221 632.28L231.821 632.28ZM261.4 650.37C262.192 649.434 263.164 648.678 264.316 648.102C265.468 647.49 266.674 647.184 267.934 647.184C269.878 647.184 271.426 647.814 272.578 649.074C273.766 650.298 274.36 652.08 274.36 654.42L274.36 661.926C274.36 663.438 274.522 664.59 274.846 665.382C275.17 666.174 275.53 666.714 275.926 667.002C276.322 667.29 276.52 667.38 276.52 667.272L268.744 667.272C268.744 667.38 268.942 667.308 269.338 667.056C269.734 666.768 270.094 666.228 270.418 665.436C270.742 664.644 270.904 663.456 270.904 661.872L270.904 655.716C270.904 654.492 270.742 653.52 270.418 652.8C270.094 652.08 269.662 651.486 269.122 651.018C268.294 650.334 267.304 649.992 266.152 649.992C264.856 649.992 263.74 650.424 262.804 651.288C261.868 652.116 261.4 653.286 261.4 654.798L261.4 661.872C261.4 663.42 261.562 664.59 261.886 665.382C262.21 666.174 262.57 666.714 262.966 667.002C263.398 667.29 263.614 667.38 263.614 667.272L255.838 667.272C255.838 667.38 256.036 667.308 256.432 667.056C256.828 666.768 257.17 666.228 257.458 665.436C257.782 664.608 257.944 663.42 257.944 661.872L257.944 634.062C257.944 632.55 257.692 631.524 257.188 630.984C256.72 630.408 256.18 630.12 255.568 630.12L255.244 630.12L261.4 627.312L261.4 650.37ZM282.993 653.718C282.993 652.206 282.741 651.18 282.237 650.64C281.769 650.064 281.229 649.776 280.617 649.776L286.449 647.184L286.449 661.872C286.449 663.456 286.611 664.644 286.935 665.436C287.259 666.228 287.619 666.768 288.015 667.056C288.411 667.308 288.609 667.38 288.609 667.272L280.833 667.272C280.833 667.38 281.031 667.308 281.427 667.056C281.823 666.768 282.183 666.228 282.507 665.436C282.831 664.644 282.993 663.456 282.993 661.872L282.993 653.718ZM284.667 640.65C283.875 640.65 283.245 640.398 282.777 639.894C282.345 639.354 282.129 638.742 282.129 638.058C282.129 637.374 282.345 636.78 282.777 636.276C283.245 635.736 283.875 635.466 284.667 635.466C285.459 635.466 286.071 635.736 286.503 636.276C286.971 636.78 287.205 637.374 287.205 638.058C287.205 638.742 286.971 639.354 286.503 639.894C286.071 640.398 285.459 640.65 284.667 640.65ZM299.983 667.92C298.903 667.92 297.787 667.74 296.635 667.38C295.483 667.02 294.529 666.552 293.773 665.976L293.773 661.224C294.457 662.916 295.375 664.14 296.527 664.896C297.715 665.616 298.993 665.976 300.361 665.976C301.477 665.976 302.377 665.67 303.061 665.058C303.781 664.446 304.141 663.78 304.141 663.06C304.141 662.268 303.781 661.602 303.061 661.062C302.341 660.522 301.243 659.91 299.767 659.226C297.859 658.326 296.383 657.444 295.339 656.58C294.295 655.716 293.773 654.546 293.773 653.07C293.773 651.45 294.385 650.064 295.609 648.912C296.833 647.76 298.435 647.184 300.415 647.184C301.783 647.184 302.971 647.346 303.979 647.67C304.987 647.994 305.743 648.354 306.247 648.75L305.383 652.8C304.951 651.576 304.231 650.658 303.223 650.046C302.215 649.434 301.153 649.128 300.037 649.128C299.065 649.128 298.255 649.416 297.607 649.992C296.995 650.568 296.689 651.216 296.689 651.936C296.689 652.908 297.067 653.682 297.823 654.258C298.615 654.834 299.803 655.464 301.387 656.148C303.259 656.94 304.681 657.75 305.653 658.578C306.661 659.37 307.165 660.504 307.165 661.98C307.165 663.024 306.877 663.996 306.301 664.896C305.725 665.796 304.879 666.534 303.763 667.11C302.683 667.65 301.423 667.92 299.983 667.92ZM332.362 667.92C331.282 667.92 330.166 667.74 329.014 667.38C327.862 667.02 326.908 666.552 326.152 665.976L326.152 661.224C326.836 662.916 327.754 664.14 328.906 664.896C330.094 665.616 331.372 665.976 332.74 665.976C333.856 665.976 334.756 665.67 335.44 665.058C336.16 664.446 336.52 663.78 336.52 663.06C336.52 662.268 336.16 661.602 335.44 661.062C334.72 660.522 333.622 659.91 332.146 659.226C330.238 658.326 328.762 657.444 327.718 656.58C326.674 655.716 326.152 654.546 326.152 653.07C326.152 651.45 326.764 650.064 327.988 648.912C329.212 647.76 330.814 647.184 332.794 647.184C334.162 647.184 335.35 647.346 336.358 647.67C337.366 647.994 338.122 648.354 338.626 648.75L337.762 652.8C337.33 651.576 336.61 650.658 335.602 650.046C334.594 649.434 333.532 649.128 332.416 649.128C331.444 649.128 330.634 649.416 329.986 649.992C329.374 650.568 329.068 651.216 329.068 651.936C329.068 652.908 329.446 653.682 330.202 654.258C330.994 654.834 332.182 655.464 333.766 656.148C335.638 656.94 337.06 657.75 338.032 658.578C339.04 659.37 339.544 660.504 339.544 661.98C339.544 663.024 339.256 663.996 338.68 664.896C338.104 665.796 337.258 666.534 336.142 667.11C335.062 667.65 333.802 667.92 332.362 667.92ZM351.41 665.652L345.092 651.342C344.48 649.974 343.886 649.038 343.31 648.534C342.77 647.994 342.338 647.688 342.014 647.616L349.898 647.616C349.574 647.688 349.25 647.85 348.926 648.102C348.602 648.354 348.44 648.804 348.44 649.452C348.44 650.064 348.62 650.748 348.98 651.504L353.354 661.602L357.242 652.044C357.494 651.396 357.62 650.73 357.62 650.046C357.62 649.398 357.476 648.858 357.188 648.426C356.936 647.994 356.504 647.724 355.892 647.616L363.128 647.616C362.732 647.688 362.21 647.994 361.562 648.534C360.95 649.074 360.338 650.082 359.726 651.558L352.382 668.622C351.41 670.89 350.69 672.672 350.222 673.968C349.754 675.3 349.304 676.668 348.872 678.072C348.692 678.756 348.512 679.332 348.332 679.8L342.824 679.8C343.796 679.332 344.984 678.018 346.388 675.858C347.828 673.698 349.304 670.782 350.816 667.11L351.41 665.652ZM371.088 650.856C371.988 649.74 372.996 648.858 374.112 648.21C375.228 647.526 376.398 647.184 377.622 647.184C378.954 647.184 380.124 647.508 381.132 648.156C382.176 648.768 382.932 649.668 383.4 650.856C384.372 649.632 385.47 648.714 386.694 648.102C387.954 647.49 389.25 647.184 390.582 647.184C392.526 647.184 394.074 647.814 395.226 649.074C396.414 650.298 397.008 652.08 397.008 654.42L397.008 661.926C397.008 663.906 397.26 665.274 397.764 666.03C398.268 666.786 398.718 667.2 399.114 667.272L391.446 667.272C391.878 667.2 392.328 666.786 392.796 666.03C393.3 665.274 393.552 663.888 393.552 661.872L393.552 655.716C393.552 654.492 393.39 653.52 393.066 652.8C392.742 652.08 392.31 651.486 391.77 651.018C390.942 650.334 389.952 649.992 388.8 649.992C387.54 649.992 386.424 650.424 385.452 651.288C384.516 652.116 384.048 653.286 384.048 654.798L384.048 661.872C384.048 663.888 384.282 665.274 384.75 666.03C385.254 666.786 385.722 667.2 386.154 667.272L378.486 667.272C378.918 667.2 379.368 666.786 379.836 666.03C380.34 665.274 380.592 663.888 380.592 661.872L380.592 655.716C380.592 654.492 380.43 653.52 380.106 652.8C379.782 652.08 379.35 651.486 378.81 651.018C377.982 650.334 376.992 649.992 375.84 649.992C374.544 649.992 373.428 650.424 372.492 651.288C371.556 652.116 371.088 653.286 371.088 654.798L371.088 661.872C371.088 663.924 371.34 665.328 371.844 666.084C372.348 666.804 372.816 667.2 373.248 667.272L365.58 667.272C366.012 667.2 366.462 666.786 366.93 666.03C367.398 665.274 367.632 663.888 367.632 661.872L367.632 653.718C367.632 652.206 367.38 651.18 366.876 650.64C366.408 650.064 365.868 649.776 365.256 649.776L371.088 647.184L371.088 650.856ZM405.653 634.062C405.653 632.55 405.401 631.524 404.897 630.984C404.429 630.408 403.889 630.12 403.277 630.12L402.953 630.12L409.109 627.312L409.109 650.694C409.541 649.974 410.315 649.218 411.431 648.426C412.583 647.598 414.077 647.184 415.913 647.184C417.497 647.184 418.919 647.58 420.179 648.372C421.439 649.164 422.429 650.262 423.149 651.666C423.869 653.07 424.229 654.636 424.229 656.364C424.229 658.56 423.779 660.504 422.879 662.196C421.979 663.888 420.809 665.238 419.369 666.246C417.749 667.362 415.913 667.92 413.861 667.92C412.421 667.92 410.891 667.614 409.271 667.002C408.515 666.714 407.939 666.57 407.543 666.57C406.931 666.57 406.301 666.93 405.653 667.65L405.653 634.062ZM409.109 660.684C409.109 661.836 409.235 662.772 409.487 663.492C409.739 664.212 410.171 664.752 410.783 665.112C411.683 665.688 412.835 665.976 414.239 665.976C415.967 665.976 417.407 665.256 418.559 663.816C419.747 662.34 420.341 660.396 420.341 657.984C420.341 655.716 419.801 653.754 418.721 652.098C417.677 650.406 416.147 649.56 414.131 649.56C413.375 649.56 412.601 649.776 411.809 650.208C411.017 650.604 410.369 651.162 409.865 651.882C409.361 652.602 409.109 653.412 409.109 654.312L409.109 660.684ZM428.542 658.038C428.542 656.166 428.992 654.402 429.892 652.746C430.828 651.054 432.106 649.704 433.726 648.696C435.346 647.688 437.146 647.184 439.126 647.184C441.034 647.184 442.762 647.634 444.31 648.534C445.858 649.398 447.064 650.586 447.928 652.098C448.828 653.61 449.278 655.266 449.278 657.066C449.278 658.938 448.81 660.72 447.874 662.412C446.974 664.068 445.714 665.4 444.094 666.408C442.474 667.416 440.674 667.92 438.694 667.92C436.786 667.92 435.058 667.488 433.51 666.624C431.962 665.724 430.738 664.518 429.838 663.006C428.974 661.494 428.542 659.838 428.542 658.038ZM445.39 658.632C445.39 657.12 445.102 655.626 444.526 654.15C443.95 652.674 443.14 651.468 442.096 650.532C441.052 649.596 439.846 649.128 438.478 649.128C436.57 649.128 435.076 649.848 433.996 651.288C432.952 652.728 432.43 654.456 432.43 656.472C432.43 657.984 432.718 659.478 433.294 660.954C433.87 662.43 434.68 663.636 435.724 664.572C436.768 665.508 437.974 665.976 439.342 665.976C441.25 665.976 442.726 665.256 443.77 663.816C444.85 662.376 445.39 660.648 445.39 658.632ZM455.751 634.062C455.751 632.55 455.499 631.524 454.995 630.984C454.527 630.408 453.987 630.12 453.375 630.12L453.051 630.12L459.207 627.312L459.207 661.872C459.207 663.456 459.369 664.644 459.693 665.436C460.017 666.228 460.377 666.768 460.773 667.056C461.169 667.308 461.367 667.38 461.367 667.272L453.591 667.272C453.591 667.38 453.789 667.308 454.185 667.056C454.581 666.768 454.941 666.228 455.265 665.436C455.589 664.608 455.751 663.42 455.751 661.872L455.751 634.062ZM481.643 653.718C481.643 652.206 481.391 651.18 480.887 650.64C480.419 650.064 479.879 649.776 479.267 649.776L485.099 647.184L485.099 661.872C485.099 663.456 485.261 664.644 485.585 665.436C485.909 666.228 486.269 666.768 486.665 667.056C487.061 667.308 487.259 667.38 487.259 667.272L479.483 667.272C479.483 667.38 479.681 667.308 480.077 667.056C480.473 666.768 480.833 666.228 481.157 665.436C481.481 664.644 481.643 663.456 481.643 661.872L481.643 653.718ZM483.317 640.65C482.525 640.65 481.895 640.398 481.427 639.894C480.995 639.354 480.779 638.742 480.779 638.058C480.779 637.374 480.995 636.78 481.427 636.276C481.895 635.736 482.525 635.466 483.317 635.466C484.109 635.466 484.721 635.736 485.153 636.276C485.621 636.78 485.855 637.374 485.855 638.058C485.855 638.742 485.621 639.354 485.153 639.894C484.721 640.398 484.109 640.65 483.317 640.65ZM497.175 650.856C498.003 649.74 498.975 648.858 500.091 648.21C501.243 647.526 502.449 647.184 503.709 647.184C505.653 647.184 507.201 647.814 508.353 649.074C509.541 650.298 510.135 652.08 510.135 654.42L510.135 661.926C510.135 663.438 510.297 664.59 510.621 665.382C510.945 666.174 511.305 666.714 511.701 667.002C512.097 667.29 512.295 667.38 512.295 667.272L504.519 667.272C504.519 667.38 504.717 667.308 505.113 667.056C505.509 666.768 505.869 666.228 506.193 665.436C506.517 664.644 506.679 663.456 506.679 661.872L506.679 655.716C506.679 654.492 506.517 653.52 506.193 652.8C505.869 652.08 505.437 651.486 504.897 651.018C504.069 650.334 503.079 649.992 501.927 649.992C500.631 649.992 499.515 650.424 498.579 651.288C497.643 652.116 497.175 653.286 497.175 654.798L497.175 661.872C497.175 663.42 497.337 664.59 497.661 665.382C497.985 666.174 498.345 666.714 498.741 667.002C499.173 667.29 499.389 667.38 499.389 667.272L491.613 667.272C491.613 667.38 491.811 667.308 492.207 667.056C492.603 666.768 492.945 666.228 493.233 665.436C493.557 664.608 493.719 663.42 493.719 661.872L493.719 653.718C493.719 652.206 493.467 651.18 492.963 650.64C492.495 650.064 491.955 649.776 491.343 649.776L497.175 647.184L497.175 650.856ZM531.728 634.062C531.728 632.55 531.476 631.524 530.972 630.984C530.504 630.408 529.964 630.12 529.352 630.12L529.028 630.12L535.184 627.312L535.184 661.17C535.184 662.682 535.418 663.726 535.886 664.302C536.39 664.842 536.948 665.112 537.56 665.112L537.884 665.112L531.728 667.92L531.728 664.41C531.296 665.13 530.504 665.904 529.352 666.732C528.236 667.524 526.76 667.92 524.924 667.92C523.34 667.92 521.918 667.524 520.658 666.732C519.398 665.94 518.408 664.842 517.688 663.438C516.968 662.034 516.608 660.468 516.608 658.74C516.608 656.544 517.058 654.6 517.958 652.908C518.858 651.216 520.028 649.866 521.468 648.858C523.088 647.742 524.852 647.184 526.76 647.184C528.02 647.184 529.064 647.364 529.892 647.724C530.72 648.048 531.332 648.354 531.728 648.642L531.728 634.062ZM520.496 657.12C520.496 659.388 521.018 661.368 522.062 663.06C523.142 664.716 524.69 665.544 526.706 665.544C527.462 665.544 528.236 665.346 529.028 664.95C529.82 664.518 530.468 663.942 530.972 663.222C531.476 662.502 531.728 661.692 531.728 660.792L531.728 654.42C531.728 653.268 531.584 652.332 531.296 651.612C531.044 650.892 530.63 650.352 530.054 649.992C529.154 649.416 528.056 649.128 526.76 649.128C524.96 649.128 523.466 649.866 522.278 651.342C521.09 652.782 520.496 654.708 520.496 657.12ZM543.817 653.718C543.817 652.206 543.565 651.18 543.061 650.64C542.593 650.064 542.053 649.776 541.441 649.776L547.273 647.184L547.273 661.872C547.273 663.456 547.435 664.644 547.759 665.436C548.083 666.228 548.443 666.768 548.839 667.056C549.235 667.308 549.433 667.38 549.433 667.272L541.657 667.272C541.657 667.38 541.855 667.308 542.251 667.056C542.647 666.768 543.007 666.228 543.331 665.436C543.655 664.644 543.817 663.456 543.817 661.872L543.817 653.718ZM545.491 640.65C544.699 640.65 544.069 640.398 543.601 639.894C543.169 639.354 542.953 638.742 542.953 638.058C542.953 637.374 543.169 636.78 543.601 636.276C544.069 635.736 544.699 635.466 545.491 635.466C546.283 635.466 546.895 635.736 547.327 636.276C547.795 636.78 548.029 637.374 548.029 638.058C548.029 638.742 547.795 639.354 547.327 639.894C546.895 640.398 546.283 640.65 545.491 640.65ZM563.291 667.92C561.347 667.92 559.637 667.452 558.161 666.516C556.721 665.58 555.623 664.338 554.867 662.79C554.111 661.242 553.733 659.604 553.733 657.876C553.733 656.076 554.111 654.366 554.867 652.746C555.659 651.09 556.793 649.758 558.269 648.75C559.745 647.706 561.491 647.184 563.507 647.184C565.919 647.184 567.665 647.706 568.745 648.75C569.825 649.794 570.581 650.892 571.013 652.044L567.449 653.772C567.233 652.476 566.693 651.378 565.829 650.478C565.001 649.578 563.975 649.128 562.751 649.128C560.987 649.128 559.619 649.812 558.647 651.18C557.675 652.548 557.189 654.222 557.189 656.202C557.189 657.606 557.495 658.974 558.107 660.306C558.755 661.602 559.655 662.664 560.807 663.492C561.995 664.32 563.381 664.734 564.965 664.734C566.261 664.734 567.485 664.446 568.637 663.87C569.825 663.258 570.761 662.448 571.445 661.44C571.049 663.456 570.113 665.04 568.637 666.192C567.161 667.344 565.379 667.92 563.291 667.92ZM591.608 667.92C590.456 667.884 589.484 667.578 588.692 667.002C587.9 666.426 587.45 665.76 587.342 665.004C586.694 665.94 585.83 666.66 584.75 667.164C583.706 667.668 582.662 667.92 581.618 667.92C579.962 667.92 578.576 667.452 577.46 666.516C576.344 665.544 575.786 664.284 575.786 662.736C575.786 658.74 579.53 656.742 587.018 656.742L587.018 656.148C587.018 654.168 586.73 652.71 586.154 651.774C585.362 650.442 584.066 649.776 582.266 649.776C580.862 649.776 579.692 650.19 578.756 651.018C577.856 651.846 577.406 652.926 577.406 654.258C577.19 653.898 577.01 653.574 576.866 653.286C576.758 652.998 576.704 652.602 576.704 652.098C576.704 650.802 577.316 649.668 578.54 648.696C579.764 647.688 581.366 647.184 583.346 647.184C586.154 647.184 588.152 648.12 589.34 649.992C589.736 650.568 590.024 651.288 590.204 652.152C590.384 653.016 590.474 654.15 590.474 655.554L590.474 661.98C590.474 663.096 590.78 663.96 591.392 664.572C592.04 665.184 592.94 665.49 594.092 665.49L594.794 665.49L591.608 667.92ZM587.018 658.362C584.138 658.362 582.194 658.722 581.186 659.442C580.178 660.162 579.674 661.134 579.674 662.358C579.674 663.366 579.944 664.158 580.484 664.734C581.024 665.31 581.744 665.598 582.644 665.598C583.328 665.598 583.976 665.436 584.588 665.112C585.2 664.788 585.722 664.338 586.154 663.762C586.73 663.006 587.018 661.98 587.018 660.684L587.018 658.362ZM604.481 667.92C602.717 667.92 601.385 667.326 600.485 666.138C599.585 664.914 599.135 663.456 599.135 661.764L599.135 649.776L596.111 649.776L602.591 642.432L602.591 647.616L609.503 647.616L609.503 649.776L602.591 649.776L602.591 661.17C602.591 662.538 602.951 663.582 603.671 664.302C604.391 664.986 605.219 665.328 606.155 665.328C606.875 665.328 607.577 665.112 608.261 664.68C608.945 664.248 609.503 663.654 609.935 662.898C609.395 666.246 607.577 667.92 604.481 667.92ZM622.718 667.92C620.774 667.92 619.1 667.452 617.696 666.516C616.292 665.544 615.212 664.302 614.456 662.79C613.736 661.242 613.376 659.604 613.376 657.876C613.376 655.644 613.808 653.718 614.672 652.098C615.572 650.478 616.724 649.254 618.128 648.426C619.532 647.598 620.99 647.184 622.502 647.184C624.662 647.184 626.516 647.976 628.064 649.56C629.648 651.108 630.512 653.268 630.656 656.04L616.616 656.04C616.616 657.768 616.94 659.298 617.588 660.63C618.236 661.926 619.1 662.934 620.18 663.654C621.296 664.338 622.502 664.68 623.798 664.68C627.182 664.68 629.468 663.6 630.656 661.44C630.332 663.384 629.45 664.95 628.01 666.138C626.57 667.326 624.806 667.92 622.718 667.92ZM622.124 648.966C620.72 648.966 619.514 649.47 618.506 650.478C617.498 651.45 616.886 652.728 616.67 654.312L626.498 654.312C626.498 652.656 626.048 651.36 625.148 650.424C624.284 649.452 623.276 648.966 622.124 648.966ZM642.071 667.92C640.991 667.92 639.875 667.74 638.723 667.38C637.571 667.02 636.617 666.552 635.861 665.976L635.861 661.224C636.545 662.916 637.463 664.14 638.615 664.896C639.803 665.616 641.081 665.976 642.449 665.976C643.565 665.976 644.465 665.67 645.149 665.058C645.869 664.446 646.229 663.78 646.229 663.06C646.229 662.268 645.869 661.602 645.149 661.062C644.429 660.522 643.331 659.91 641.855 659.226C639.947 658.326 638.471 657.444 637.427 656.58C636.383 655.716 635.861 654.546 635.861 653.07C635.861 651.45 636.473 650.064 637.697 648.912C638.921 647.76 640.523 647.184 642.503 647.184C643.871 647.184 645.059 647.346 646.067 647.67C647.075 647.994 647.831 648.354 648.335 648.75L647.471 652.8C647.039 651.576 646.319 650.658 645.311 650.046C644.303 649.434 643.241 649.128 642.125 649.128C641.153 649.128 640.343 649.416 639.695 649.992C639.083 650.568 638.777 651.216 638.777 651.936C638.777 652.908 639.155 653.682 639.911 654.258C640.703 654.834 641.891 655.464 643.475 656.148C645.347 656.94 646.769 657.75 647.741 658.578C648.749 659.37 649.253 660.504 649.253 661.98C649.253 663.024 648.965 663.996 648.389 664.896C647.813 665.796 646.967 666.534 645.851 667.11C644.771 667.65 643.511 667.92 642.071 667.92ZM674.882 667.92C673.118 667.92 671.786 667.326 670.886 666.138C669.986 664.914 669.536 663.456 669.536 661.764L669.536 649.776L666.512 649.776L672.992 642.432L672.992 647.616L679.904 647.616L679.904 649.776L672.992 649.776L672.992 661.17C672.992 662.538 673.352 663.582 674.072 664.302C674.792 664.986 675.62 665.328 676.556 665.328C677.276 665.328 677.978 665.112 678.662 664.68C679.346 664.248 679.904 663.654 680.336 662.898C679.796 666.246 677.978 667.92 674.882 667.92ZM689.392 650.37C690.184 649.434 691.156 648.678 692.308 648.102C693.46 647.49 694.666 647.184 695.926 647.184C697.87 647.184 699.418 647.814 700.57 649.074C701.758 650.298 702.352 652.08 702.352 654.42L702.352 661.926C702.352 663.438 702.514 664.59 702.838 665.382C703.162 666.174 703.522 666.714 703.918 667.002C704.314 667.29 704.512 667.38 704.512 667.272L696.736 667.272C696.736 667.38 696.934 667.308 697.33 667.056C697.726 666.768 698.086 666.228 698.41 665.436C698.734 664.644 698.896 663.456 698.896 661.872L698.896 655.716C698.896 654.492 698.734 653.52 698.41 652.8C698.086 652.08 697.654 651.486 697.114 651.018C696.286 650.334 695.296 649.992 694.144 649.992C692.848 649.992 691.732 650.424 690.796 651.288C689.86 652.116 689.392 653.286 689.392 654.798L689.392 661.872C689.392 663.42 689.554 664.59 689.878 665.382C690.202 666.174 690.562 666.714 690.958 667.002C691.39 667.29 691.606 667.38 691.606 667.272L683.83 667.272C683.83 667.38 684.028 667.308 684.424 667.056C684.82 666.768 685.162 666.228 685.45 665.436C685.774 664.608 685.936 663.42 685.936 661.872L685.936 634.062C685.936 632.55 685.684 631.524 685.18 630.984C684.712 630.408 684.172 630.12 683.56 630.12L683.236 630.12L689.392 627.312L689.392 650.37ZM725.079 667.92C723.927 667.884 722.955 667.578 722.163 667.002C721.371 666.426 720.921 665.76 720.813 665.004C720.165 665.94 719.301 666.66 718.221 667.164C717.177 667.668 716.133 667.92 715.089 667.92C713.433 667.92 712.047 667.452 710.931 666.516C709.815 665.544 709.257 664.284 709.257 662.736C709.257 658.74 713.001 656.742 720.489 656.742L720.489 656.148C720.489 654.168 720.201 652.71 719.625 651.774C718.833 650.442 717.537 649.776 715.737 649.776C714.333 649.776 713.163 650.19 712.227 651.018C711.327 651.846 710.877 652.926 710.877 654.258C710.661 653.898 710.481 653.574 710.337 653.286C710.229 652.998 710.175 652.602 710.175 652.098C710.175 650.802 710.787 649.668 712.011 648.696C713.235 647.688 714.837 647.184 716.817 647.184C719.625 647.184 721.623 648.12 722.811 649.992C723.207 650.568 723.495 651.288 723.675 652.152C723.855 653.016 723.945 654.15 723.945 655.554L723.945 661.98C723.945 663.096 724.251 663.96 724.863 664.572C725.511 665.184 726.411 665.49 727.563 665.49L728.265 665.49L725.079 667.92ZM720.489 658.362C717.609 658.362 715.665 658.722 714.657 659.442C713.649 660.162 713.145 661.134 713.145 662.358C713.145 663.366 713.415 664.158 713.955 664.734C714.495 665.31 715.215 665.598 716.115 665.598C716.799 665.598 717.447 665.436 718.059 665.112C718.671 664.788 719.193 664.338 719.625 663.762C720.201 663.006 720.489 661.98 720.489 660.684L720.489 658.362ZM737.952 667.92C736.188 667.92 734.856 667.326 733.956 666.138C733.056 664.914 732.606 663.456 732.606 661.764L732.606 649.776L729.582 649.776L736.062 642.432L736.062 647.616L742.974 647.616L742.974 649.776L736.062 649.776L736.062 661.17C736.062 662.538 736.422 663.582 737.142 664.302C737.862 664.986 738.69 665.328 739.626 665.328C740.346 665.328 741.048 665.112 741.732 664.68C742.416 664.248 742.974 663.654 743.406 662.898C742.866 666.246 741.048 667.92 737.952 667.92ZM768.169 667.92C766.405 667.92 765.073 667.326 764.173 666.138C763.273 664.914 762.823 663.456 762.823 661.764L762.823 649.776L759.799 649.776L766.279 642.432L766.279 647.616L773.191 647.616L773.191 649.776L766.279 649.776L766.279 661.17C766.279 662.538 766.639 663.582 767.359 664.302C768.079 664.986 768.907 665.328 769.843 665.328C770.563 665.328 771.265 665.112 771.949 664.68C772.633 664.248 773.191 663.654 773.623 662.898C773.083 666.246 771.265 667.92 768.169 667.92ZM782.679 650.37C783.471 649.434 784.443 648.678 785.595 648.102C786.747 647.49 787.953 647.184 789.213 647.184C791.157 647.184 792.705 647.814 793.857 649.074C795.045 650.298 795.639 652.08 795.639 654.42L795.639 661.926C795.639 663.438 795.801 664.59 796.125 665.382C796.449 666.174 796.809 666.714 797.205 667.002C797.601 667.29 797.799 667.38 797.799 667.272L790.023 667.272C790.023 667.38 790.221 667.308 790.617 667.056C791.013 666.768 791.373 666.228 791.697 665.436C792.021 664.644 792.183 663.456 792.183 661.872L792.183 655.716C792.183 654.492 792.021 653.52 791.697 652.8C791.373 652.08 790.941 651.486 790.401 651.018C789.573 650.334 788.583 649.992 787.431 649.992C786.135 649.992 785.019 650.424 784.083 651.288C783.147 652.116 782.679 653.286 782.679 654.798L782.679 661.872C782.679 663.42 782.841 664.59 783.165 665.382C783.489 666.174 783.849 666.714 784.245 667.002C784.677 667.29 784.893 667.38 784.893 667.272L777.117 667.272C777.117 667.38 777.315 667.308 777.711 667.056C778.107 666.768 778.449 666.228 778.737 665.436C779.061 664.608 779.223 663.42 779.223 661.872L779.223 634.062C779.223 632.55 778.971 631.524 778.467 630.984C777.999 630.408 777.459 630.12 776.847 630.12L776.523 630.12L782.679 627.312L782.679 650.37ZM811.454 667.92C809.51 667.92 807.836 667.452 806.432 666.516C805.028 665.544 803.948 664.302 803.192 662.79C802.472 661.242 802.112 659.604 802.112 657.876C802.112 655.644 802.544 653.718 803.408 652.098C804.308 650.478 805.46 649.254 806.864 648.426C808.268 647.598 809.726 647.184 811.238 647.184C813.398 647.184 815.252 647.976 816.8 649.56C818.384 651.108 819.248 653.268 819.392 656.04L805.352 656.04C805.352 657.768 805.676 659.298 806.324 660.63C806.972 661.926 807.836 662.934 808.916 663.654C810.032 664.338 811.238 664.68 812.534 664.68C815.918 664.68 818.204 663.6 819.392 661.44C819.068 663.384 818.186 664.95 816.746 666.138C815.306 667.326 813.542 667.92 811.454 667.92ZM810.86 648.966C809.456 648.966 808.25 649.47 807.242 650.478C806.234 651.45 805.622 652.728 805.406 654.312L815.234 654.312C815.234 652.656 814.784 651.36 813.884 650.424C813.02 649.452 812.012 648.966 810.86 648.966ZM274.904 694.01C274.256 693.362 273.464 692.858 272.528 692.498C271.628 692.102 270.71 691.904 269.774 691.904C267.974 691.904 266.66 692.552 265.832 693.848C265.004 695.108 264.59 696.746 264.59 698.762L264.59 709.616L270.206 709.616L270.206 711.776L264.59 711.776L264.59 723.872C264.59 725.42 264.752 726.608 265.076 727.436C265.4 728.228 265.76 728.768 266.156 729.056C266.552 729.308 266.75 729.38 266.75 729.272L258.92 729.272C258.92 729.38 259.118 729.308 259.514 729.056C259.946 728.768 260.324 728.228 260.648 727.436C260.972 726.608 261.134 725.42 261.134 723.872L261.134 711.776L258.11 711.776L258.11 709.616L261.134 709.616L261.134 702.11C261.134 699.59 261.548 697.376 262.376 695.468C263.24 693.524 264.428 692.012 265.94 690.932C267.488 689.852 269.252 689.312 271.232 689.312C272.78 689.312 274.004 689.474 274.904 689.798L274.904 694.01ZM272.791 720.038C272.791 718.166 273.241 716.402 274.141 714.746C275.077 713.054 276.355 711.704 277.975 710.696C279.595 709.688 281.395 709.184 283.375 709.184C285.283 709.184 287.011 709.634 288.559 710.534C290.107 711.398 291.313 712.586 292.177 714.098C293.077 715.61 293.527 717.266 293.527 719.066C293.527 720.938 293.059 722.72 292.123 724.412C291.223 726.068 289.963 727.4 288.343 728.408C286.723 729.416 284.923 729.92 282.943 729.92C281.035 729.92 279.307 729.488 277.759 728.624C276.211 727.724 274.987 726.518 274.087 725.006C273.223 723.494 272.791 721.838 272.791 720.038ZM289.639 720.632C289.639 719.12 289.351 717.626 288.775 716.15C288.199 714.674 287.389 713.468 286.345 712.532C285.301 711.596 284.095 711.128 282.727 711.128C280.819 711.128 279.325 711.848 278.245 713.288C277.201 714.728 276.679 716.456 276.679 718.472C276.679 719.984 276.967 721.478 277.543 722.954C278.119 724.43 278.929 725.636 279.973 726.572C281.017 727.508 282.223 727.976 283.591 727.976C285.499 727.976 286.975 727.256 288.019 725.816C289.099 724.376 289.639 722.648 289.639 720.632ZM297.84 720.038C297.84 718.166 298.29 716.402 299.19 714.746C300.126 713.054 301.404 711.704 303.024 710.696C304.644 709.688 306.444 709.184 308.424 709.184C310.332 709.184 312.06 709.634 313.608 710.534C315.156 711.398 316.362 712.586 317.226 714.098C318.126 715.61 318.576 717.266 318.576 719.066C318.576 720.938 318.108 722.72 317.172 724.412C316.272 726.068 315.012 727.4 313.392 728.408C311.772 729.416 309.972 729.92 307.992 729.92C306.084 729.92 304.356 729.488 302.808 728.624C301.26 727.724 300.036 726.518 299.136 725.006C298.272 723.494 297.84 721.838 297.84 720.038ZM314.688 720.632C314.688 719.12 314.4 717.626 313.824 716.15C313.248 714.674 312.438 713.468 311.394 712.532C310.35 711.596 309.144 711.128 307.776 711.128C305.868 711.128 304.374 711.848 303.294 713.288C302.25 714.728 301.728 716.456 301.728 718.472C301.728 719.984 302.016 721.478 302.592 722.954C303.168 724.43 303.978 725.636 305.022 726.572C306.066 727.508 307.272 727.976 308.64 727.976C310.548 727.976 312.024 727.256 313.068 725.816C314.148 724.376 314.688 722.648 314.688 720.632ZM338.009 696.062C338.009 694.55 337.757 693.524 337.253 692.984C336.785 692.408 336.245 692.12 335.633 692.12L335.309 692.12L341.465 689.312L341.465 723.17C341.465 724.682 341.699 725.726 342.167 726.302C342.671 726.842 343.229 727.112 343.841 727.112L344.165 727.112L338.009 729.92L338.009 726.41C337.577 727.13 336.785 727.904 335.633 728.732C334.517 729.524 333.041 729.92 331.205 729.92C329.621 729.92 328.199 729.524 326.939 728.732C325.679 727.94 324.689 726.842 323.969 725.438C323.249 724.034 322.889 722.468 322.889 720.74C322.889 718.544 323.339 716.6 324.239 714.908C325.139 713.216 326.309 711.866 327.749 710.858C329.369 709.742 331.133 709.184 333.041 709.184C334.301 709.184 335.345 709.364 336.173 709.724C337.001 710.048 337.613 710.354 338.009 710.642L338.009 696.062ZM326.777 719.12C326.777 721.388 327.299 723.368 328.343 725.06C329.423 726.716 330.971 727.544 332.987 727.544C333.743 727.544 334.517 727.346 335.309 726.95C336.101 726.518 336.749 725.942 337.253 725.222C337.757 724.502 338.009 723.692 338.009 722.792L338.009 716.42C338.009 715.268 337.865 714.332 337.577 713.612C337.325 712.892 336.911 712.352 336.335 711.992C335.435 711.416 334.337 711.128 333.041 711.128C331.241 711.128 329.747 711.866 328.559 713.342C327.371 714.782 326.777 716.708 326.777 719.12ZM363.914 715.718C363.914 714.206 363.662 713.18 363.158 712.64C362.69 712.064 362.15 711.776 361.538 711.776L367.37 709.184L367.37 723.872C367.37 725.456 367.532 726.644 367.856 727.436C368.18 728.228 368.54 728.768 368.936 729.056C369.332 729.308 369.53 729.38 369.53 729.272L361.754 729.272C361.754 729.38 361.952 729.308 362.348 729.056C362.744 728.768 363.104 728.228 363.428 727.436C363.752 726.644 363.914 725.456 363.914 723.872L363.914 715.718ZM365.588 702.65C364.796 702.65 364.166 702.398 363.698 701.894C363.266 701.354 363.05 700.742 363.05 700.058C363.05 699.374 363.266 698.78 363.698 698.276C364.166 697.736 364.796 697.466 365.588 697.466C366.38 697.466 366.992 697.736 367.424 698.276C367.892 698.78 368.126 699.374 368.126 700.058C368.126 700.742 367.892 701.354 367.424 701.894C366.992 702.398 366.38 702.65 365.588 702.65ZM380.904 729.92C379.824 729.92 378.708 729.74 377.556 729.38C376.404 729.02 375.45 728.552 374.694 727.976L374.694 723.224C375.378 724.916 376.296 726.14 377.448 726.896C378.636 727.616 379.914 727.976 381.282 727.976C382.398 727.976 383.298 727.67 383.982 727.058C384.702 726.446 385.062 725.78 385.062 725.06C385.062 724.268 384.702 723.602 383.982 723.062C383.262 722.522 382.164 721.91 380.688 721.226C378.78 720.326 377.304 719.444 376.26 718.58C375.216 717.716 374.694 716.546 374.694 715.07C374.694 713.45 375.306 712.064 376.53 710.912C377.754 709.76 379.356 709.184 381.336 709.184C382.704 709.184 383.892 709.346 384.9 709.67C385.908 709.994 386.664 710.354 387.168 710.75L386.304 714.8C385.872 713.576 385.152 712.658 384.144 712.046C383.136 711.434 382.074 711.128 380.958 711.128C379.986 711.128 379.176 711.416 378.528 711.992C377.916 712.568 377.61 713.216 377.61 713.936C377.61 714.908 377.988 715.682 378.744 716.258C379.536 716.834 380.724 717.464 382.308 718.148C384.18 718.94 385.602 719.75 386.574 720.578C387.582 721.37 388.086 722.504 388.086 723.98C388.086 725.024 387.798 725.996 387.222 726.896C386.646 727.796 385.8 728.534 384.684 729.11C383.604 729.65 382.344 729.92 380.904 729.92ZM406.209 720.038C406.209 718.166 406.659 716.402 407.559 714.746C408.495 713.054 409.773 711.704 411.393 710.696C413.013 709.688 414.813 709.184 416.793 709.184C418.701 709.184 420.429 709.634 421.977 710.534C423.525 711.398 424.731 712.586 425.595 714.098C426.495 715.61 426.945 717.266 426.945 719.066C426.945 720.938 426.477 722.72 425.541 724.412C424.641 726.068 423.381 727.4 421.761 728.408C420.141 729.416 418.341 729.92 416.361 729.92C414.453 729.92 412.725 729.488 411.177 728.624C409.629 727.724 408.405 726.518 407.505 725.006C406.641 723.494 406.209 721.838 406.209 720.038ZM423.057 720.632C423.057 719.12 422.769 717.626 422.193 716.15C421.617 714.674 420.807 713.468 419.763 712.532C418.719 711.596 417.513 711.128 416.145 711.128C414.237 711.128 412.743 711.848 411.663 713.288C410.619 714.728 410.097 716.456 410.097 718.472C410.097 719.984 410.385 721.478 410.961 722.954C411.537 724.43 412.347 725.636 413.391 726.572C414.435 727.508 415.641 727.976 417.009 727.976C418.917 727.976 420.393 727.256 421.437 725.816C422.517 724.376 423.057 722.648 423.057 720.632ZM436.874 712.856C437.702 711.74 438.674 710.858 439.79 710.21C440.942 709.526 442.148 709.184 443.408 709.184C445.352 709.184 446.9 709.814 448.052 711.074C449.24 712.298 449.834 714.08 449.834 716.42L449.834 723.926C449.834 725.438 449.996 726.59 450.32 727.382C450.644 728.174 451.004 728.714 451.4 729.002C451.796 729.29 451.994 729.38 451.994 729.272L444.218 729.272C444.218 729.38 444.416 729.308 444.812 729.056C445.208 728.768 445.568 728.228 445.892 727.436C446.216 726.644 446.378 725.456 446.378 723.872L446.378 717.716C446.378 716.492 446.216 715.52 445.892 714.8C445.568 714.08 445.136 713.486 444.596 713.018C443.768 712.334 442.778 711.992 441.626 711.992C440.33 711.992 439.214 712.424 438.278 713.288C437.342 714.116 436.874 715.286 436.874 716.798L436.874 723.872C436.874 725.42 437.036 726.59 437.36 727.382C437.684 728.174 438.044 728.714 438.44 729.002C438.872 729.29 439.088 729.38 439.088 729.272L431.312 729.272C431.312 729.38 431.51 729.308 431.906 729.056C432.302 728.768 432.644 728.228 432.932 727.436C433.256 726.608 433.418 725.42 433.418 723.872L433.418 715.718C433.418 714.206 433.166 713.18 432.662 712.64C432.194 712.064 431.654 711.776 431.042 711.776L436.874 709.184L436.874 712.856ZM477.629 729.92C475.865 729.92 474.533 729.326 473.633 728.138C472.733 726.914 472.283 725.456 472.283 723.764L472.283 711.776L469.259 711.776L475.739 704.432L475.739 709.616L482.651 709.616L482.651 711.776L475.739 711.776L475.739 723.17C475.739 724.538 476.099 725.582 476.819 726.302C477.539 726.986 478.367 727.328 479.303 727.328C480.023 727.328 480.725 727.112 481.409 726.68C482.093 726.248 482.651 725.654 483.083 724.898C482.543 728.246 480.725 729.92 477.629 729.92ZM492.139 712.37C492.931 711.434 493.903 710.678 495.055 710.102C496.207 709.49 497.413 709.184 498.673 709.184C500.617 709.184 502.165 709.814 503.317 711.074C504.505 712.298 505.099 714.08 505.099 716.42L505.099 723.926C505.099 725.438 505.261 726.59 505.585 727.382C505.909 728.174 506.269 728.714 506.665 729.002C507.061 729.29 507.259 729.38 507.259 729.272L499.483 729.272C499.483 729.38 499.681 729.308 500.077 729.056C500.473 728.768 500.833 728.228 501.157 727.436C501.481 726.644 501.643 725.456 501.643 723.872L501.643 717.716C501.643 716.492 501.481 715.52 501.157 714.8C500.833 714.08 500.401 713.486 499.861 713.018C499.033 712.334 498.043 711.992 496.891 711.992C495.595 711.992 494.479 712.424 493.543 713.288C492.607 714.116 492.139 715.286 492.139 716.798L492.139 723.872C492.139 725.42 492.301 726.59 492.625 727.382C492.949 728.174 493.309 728.714 493.705 729.002C494.137 729.29 494.353 729.38 494.353 729.272L486.577 729.272C486.577 729.38 486.775 729.308 487.171 729.056C487.567 728.768 487.909 728.228 488.197 727.436C488.521 726.608 488.683 725.42 488.683 723.872L488.683 696.062C488.683 694.55 488.431 693.524 487.927 692.984C487.459 692.408 486.919 692.12 486.307 692.12L485.983 692.12L492.139 689.312L492.139 712.37ZM520.914 729.92C518.97 729.92 517.296 729.452 515.892 728.516C514.488 727.544 513.408 726.302 512.652 724.79C511.932 723.242 511.572 721.604 511.572 719.876C511.572 717.644 512.004 715.718 512.868 714.098C513.768 712.478 514.92 711.254 516.324 710.426C517.728 709.598 519.186 709.184 520.698 709.184C522.858 709.184 524.712 709.976 526.26 711.56C527.844 713.108 528.708 715.268 528.852 718.04L514.812 718.04C514.812 719.768 515.136 721.298 515.784 722.63C516.432 723.926 517.296 724.934 518.376 725.654C519.492 726.338 520.698 726.68 521.994 726.68C525.378 726.68 527.664 725.6 528.852 723.44C528.528 725.384 527.646 726.95 526.206 728.138C524.766 729.326 523.002 729.92 520.914 729.92ZM520.32 710.966C518.916 710.966 517.71 711.47 516.702 712.478C515.694 713.45 515.082 714.728 514.866 716.312L524.694 716.312C524.694 714.656 524.244 713.36 523.344 712.424C522.48 711.452 521.472 710.966 520.32 710.966ZM556.352 729.92C554.408 729.92 552.734 729.452 551.33 728.516C549.926 727.544 548.846 726.302 548.09 724.79C547.37 723.242 547.01 721.604 547.01 719.876C547.01 717.644 547.442 715.718 548.306 714.098C549.206 712.478 550.358 711.254 551.762 710.426C553.166 709.598 554.624 709.184 556.136 709.184C558.296 709.184 560.15 709.976 561.698 711.56C563.282 713.108 564.146 715.268 564.29 718.04L550.25 718.04C550.25 719.768 550.574 721.298 551.222 722.63C551.87 723.926 552.734 724.934 553.814 725.654C554.93 726.338 556.136 726.68 557.432 726.68C560.816 726.68 563.102 725.6 564.29 723.44C563.966 725.384 563.084 726.95 561.644 728.138C560.204 729.326 558.44 729.92 556.352 729.92ZM555.758 710.966C554.354 710.966 553.148 711.47 552.14 712.478C551.132 713.45 550.52 714.728 550.304 716.312L560.132 716.312C560.132 714.656 559.682 713.36 558.782 712.424C557.918 711.452 556.91 710.966 555.758 710.966ZM579.377 729.272C579.449 729.272 579.575 729.254 579.755 729.218C579.971 729.146 580.169 729.02 580.349 728.84C580.529 728.66 580.619 728.39 580.619 728.03C580.619 727.31 580.331 726.536 579.755 725.708L577.055 721.712L574.733 724.898C573.833 726.158 573.383 727.13 573.383 727.814C573.383 728.21 573.491 728.516 573.707 728.732C573.923 728.948 574.139 729.092 574.355 729.164C574.571 729.236 574.715 729.272 574.787 729.272L567.713 729.272C567.713 729.308 567.893 729.218 568.253 729.002C568.613 728.786 569.135 728.336 569.819 727.652C570.539 726.932 571.403 725.906 572.411 724.574L575.867 719.93L572.411 714.638C571.511 713.234 570.701 712.172 569.981 711.452C569.297 710.696 568.739 710.192 568.307 709.94C567.911 709.688 567.713 709.58 567.713 709.616L576.137 709.616C576.065 709.616 575.921 709.67 575.705 709.778C575.525 709.85 575.345 710.012 575.165 710.264C574.985 710.48 574.895 710.786 574.895 711.182C574.895 711.722 575.129 712.352 575.597 713.072L578.189 717.014L580.565 713.774C581.429 712.622 581.861 711.704 581.861 711.02C581.861 710.66 581.771 710.372 581.591 710.156C581.411 709.94 581.213 709.796 580.997 709.724C580.817 709.652 580.691 709.616 580.619 709.616L587.801 709.616C587.801 709.58 587.585 709.67 587.153 709.886C586.721 710.102 586.145 710.534 585.425 711.182C584.741 711.794 583.931 712.694 582.995 713.882L579.269 718.742L583.427 725.006C584.255 726.266 584.993 727.22 585.641 727.868C586.289 728.48 586.811 728.876 587.207 729.056C587.603 729.236 587.801 729.308 587.801 729.272L579.377 729.272ZM597.758 729.92C595.994 729.92 594.662 729.326 593.762 728.138C592.862 726.914 592.412 725.456 592.412 723.764L592.412 711.776L589.388 711.776L595.868 704.432L595.868 709.616L602.78 709.616L602.78 711.776L595.868 711.776L595.868 723.17C595.868 724.538 596.228 725.582 596.948 726.302C597.668 726.986 598.496 727.328 599.432 727.328C600.152 727.328 600.854 727.112 601.538 726.68C602.222 726.248 602.78 725.654 603.212 724.898C602.672 728.246 600.854 729.92 597.758 729.92ZM612.268 714.098C612.808 712.946 613.69 711.848 614.914 710.804C616.174 709.724 617.434 709.184 618.694 709.184C619.486 709.184 620.08 709.292 620.476 709.508L620.476 713.936C619.684 712.964 618.568 712.478 617.128 712.478C615.616 712.478 614.428 713.144 613.564 714.476C612.7 715.772 612.268 717.446 612.268 719.498L612.268 723.872C612.268 725.888 612.502 727.274 612.97 728.03C613.438 728.786 613.888 729.2 614.32 729.272L606.706 729.272C607.138 729.2 607.588 728.804 608.056 728.084C608.56 727.328 608.812 725.924 608.812 723.872L608.812 715.718C608.812 714.206 608.56 713.18 608.056 712.64C607.588 712.064 607.048 711.776 606.436 711.776L612.268 709.184L612.268 714.098ZM633.291 729.92C631.347 729.92 629.673 729.452 628.269 728.516C626.865 727.544 625.785 726.302 625.029 724.79C624.309 723.242 623.949 721.604 623.949 719.876C623.949 717.644 624.381 715.718 625.245 714.098C626.145 712.478 627.297 711.254 628.701 710.426C630.105 709.598 631.563 709.184 633.075 709.184C635.235 709.184 637.089 709.976 638.637 711.56C640.221 713.108 641.085 715.268 641.229 718.04L627.189 718.04C627.189 719.768 627.513 721.298 628.161 722.63C628.809 723.926 629.673 724.934 630.753 725.654C631.869 726.338 633.075 726.68 634.371 726.68C637.755 726.68 640.041 725.6 641.229 723.44C640.905 725.384 640.023 726.95 638.583 728.138C637.143 729.326 635.379 729.92 633.291 729.92ZM632.697 710.966C631.293 710.966 630.087 711.47 629.079 712.478C628.071 713.45 627.459 714.728 627.243 716.312L637.071 716.312C637.071 714.656 636.621 713.36 635.721 712.424C634.857 711.452 633.849 710.966 632.697 710.966ZM651.186 712.856C652.086 711.74 653.094 710.858 654.21 710.21C655.326 709.526 656.496 709.184 657.72 709.184C659.052 709.184 660.222 709.508 661.23 710.156C662.274 710.768 663.03 711.668 663.498 712.856C664.47 711.632 665.568 710.714 666.792 710.102C668.052 709.49 669.348 709.184 670.68 709.184C672.624 709.184 674.172 709.814 675.324 711.074C676.512 712.298 677.106 714.08 677.106 716.42L677.106 723.926C677.106 725.906 677.358 727.274 677.862 728.03C678.366 728.786 678.816 729.2 679.212 729.272L671.544 729.272C671.976 729.2 672.426 728.786 672.894 728.03C673.398 727.274 673.65 725.888 673.65 723.872L673.65 717.716C673.65 716.492 673.488 715.52 673.164 714.8C672.84 714.08 672.408 713.486 671.868 713.018C671.04 712.334 670.05 711.992 668.898 711.992C667.638 711.992 666.522 712.424 665.55 713.288C664.614 714.116 664.146 715.286 664.146 716.798L664.146 723.872C664.146 725.888 664.38 727.274 664.848 728.03C665.352 728.786 665.82 729.2 666.252 729.272L658.584 729.272C659.016 729.2 659.466 728.786 659.934 728.03C660.438 727.274 660.69 725.888 660.69 723.872L660.69 717.716C660.69 716.492 660.528 715.52 660.204 714.8C659.88 714.08 659.448 713.486 658.908 713.018C658.08 712.334 657.09 711.992 655.938 711.992C654.642 711.992 653.526 712.424 652.59 713.288C651.654 714.116 651.186 715.286 651.186 716.798L651.186 723.872C651.186 725.924 651.438 727.328 651.942 728.084C652.446 728.804 652.914 729.2 653.346 729.272L645.678 729.272C646.11 729.2 646.56 728.786 647.028 728.03C647.496 727.274 647.73 725.888 647.73 723.872L647.73 715.718C647.73 714.206 647.478 713.18 646.974 712.64C646.506 712.064 645.966 711.776 645.354 711.776L651.186 709.184L651.186 712.856ZM692.934 729.92C690.99 729.92 689.316 729.452 687.912 728.516C686.508 727.544 685.428 726.302 684.672 724.79C683.952 723.242 683.592 721.604 683.592 719.876C683.592 717.644 684.024 715.718 684.888 714.098C685.788 712.478 686.94 711.254 688.344 710.426C689.748 709.598 691.206 709.184 692.718 709.184C694.878 709.184 696.732 709.976 698.28 711.56C699.864 713.108 700.728 715.268 700.872 718.04L686.832 718.04C686.832 719.768 687.156 721.298 687.804 722.63C688.452 723.926 689.316 724.934 690.396 725.654C691.512 726.338 692.718 726.68 694.014 726.68C697.398 726.68 699.684 725.6 700.872 723.44C700.548 725.384 699.666 726.95 698.226 728.138C696.786 729.326 695.022 729.92 692.934 729.92ZM692.34 710.966C690.936 710.966 689.73 711.47 688.722 712.478C687.714 713.45 687.102 714.728 686.886 716.312L696.714 716.312C696.714 714.656 696.264 713.36 695.364 712.424C694.5 711.452 693.492 710.966 692.34 710.966ZM728.371 729.92C726.427 729.92 724.753 729.452 723.349 728.516C721.945 727.544 720.865 726.302 720.109 724.79C719.389 723.242 719.029 721.604 719.029 719.876C719.029 717.644 719.461 715.718 720.325 714.098C721.225 712.478 722.377 711.254 723.781 710.426C725.185 709.598 726.643 709.184 728.155 709.184C730.315 709.184 732.169 709.976 733.717 711.56C735.301 713.108 736.165 715.268 736.309 718.04L722.269 718.04C722.269 719.768 722.593 721.298 723.241 722.63C723.889 723.926 724.753 724.934 725.833 725.654C726.949 726.338 728.155 726.68 729.451 726.68C732.835 726.68 735.121 725.6 736.309 723.44C735.985 725.384 735.103 726.95 733.663 728.138C732.223 729.326 730.459 729.92 728.371 729.92ZM727.777 710.966C726.373 710.966 725.167 711.47 724.159 712.478C723.151 713.45 722.539 714.728 722.323 716.312L732.151 716.312C732.151 714.656 731.701 713.36 730.801 712.424C729.937 711.452 728.929 710.966 727.777 710.966ZM746.266 712.856C747.094 711.74 748.066 710.858 749.182 710.21C750.334 709.526 751.54 709.184 752.8 709.184C754.744 709.184 756.292 709.814 757.444 711.074C758.632 712.298 759.226 714.08 759.226 716.42L759.226 723.926C759.226 725.438 759.388 726.59 759.712 727.382C760.036 728.174 760.396 728.714 760.792 729.002C761.188 729.29 761.386 729.38 761.386 729.272L753.61 729.272C753.61 729.38 753.808 729.308 754.204 729.056C754.6 728.768 754.96 728.228 755.284 727.436C755.608 726.644 755.77 725.456 755.77 723.872L755.77 717.716C755.77 716.492 755.608 715.52 755.284 714.8C754.96 714.08 754.528 713.486 753.988 713.018C753.16 712.334 752.17 711.992 751.018 711.992C749.722 711.992 748.606 712.424 747.67 713.288C746.734 714.116 746.266 715.286 746.266 716.798L746.266 723.872C746.266 725.42 746.428 726.59 746.752 727.382C747.076 728.174 747.436 728.714 747.832 729.002C748.264 729.29 748.48 729.38 748.48 729.272L740.704 729.272C740.704 729.38 740.902 729.308 741.298 729.056C741.694 728.768 742.036 728.228 742.324 727.436C742.648 726.608 742.81 725.42 742.81 723.872L742.81 715.718C742.81 714.206 742.558 713.18 742.054 712.64C741.586 712.064 741.046 711.776 740.434 711.776L746.266 709.184L746.266 712.856ZM780.819 696.062C780.819 694.55 780.567 693.524 780.063 692.984C779.595 692.408 779.055 692.12 778.443 692.12L778.119 692.12L784.275 689.312L784.275 723.17C784.275 724.682 784.509 725.726 784.977 726.302C785.481 726.842 786.039 727.112 786.651 727.112L786.975 727.112L780.819 729.92L780.819 726.41C780.387 727.13 779.595 727.904 778.443 728.732C777.327 729.524 775.851 729.92 774.015 729.92C772.431 729.92 771.009 729.524 769.749 728.732C768.489 727.94 767.499 726.842 766.779 725.438C766.059 724.034 765.699 722.468 765.699 720.74C765.699 718.544 766.149 716.6 767.049 714.908C767.949 713.216 769.119 711.866 770.559 710.858C772.179 709.742 773.943 709.184 775.851 709.184C777.111 709.184 778.155 709.364 778.983 709.724C779.811 710.048 780.423 710.354 780.819 710.642L780.819 696.062ZM769.587 719.12C769.587 721.388 770.109 723.368 771.153 725.06C772.233 726.716 773.781 727.544 775.797 727.544C776.553 727.544 777.327 727.346 778.119 726.95C778.911 726.518 779.559 725.942 780.063 725.222C780.567 724.502 780.819 723.692 780.819 722.792L780.819 716.42C780.819 715.268 780.675 714.332 780.387 713.612C780.135 712.892 779.721 712.352 779.145 711.992C778.245 711.416 777.147 711.128 775.851 711.128C774.051 711.128 772.557 711.866 771.369 713.342C770.181 714.782 769.587 716.708 769.587 719.12ZM290.244 777.718C290.244 776.206 289.992 775.18 289.488 774.64C289.02 774.064 288.48 773.776 287.868 773.776L293.7 771.184L293.7 785.872C293.7 787.456 293.862 788.644 294.186 789.436C294.51 790.228 294.87 790.768 295.266 791.056C295.662 791.308 295.86 791.38 295.86 791.272L288.084 791.272C288.084 791.38 288.282 791.308 288.678 791.056C289.074 790.768 289.434 790.228 289.758 789.436C290.082 788.644 290.244 787.456 290.244 785.872L290.244 777.718ZM291.918 764.65C291.126 764.65 290.496 764.398 290.028 763.894C289.596 763.354 289.38 762.742 289.38 762.058C289.38 761.374 289.596 760.78 290.028 760.276C290.496 759.736 291.126 759.466 291.918 759.466C292.71 759.466 293.322 759.736 293.754 760.276C294.222 760.78 294.456 761.374 294.456 762.058C294.456 762.742 294.222 763.354 293.754 763.894C293.322 764.398 292.71 764.65 291.918 764.65ZM309.502 791.92C307.558 791.92 305.884 791.452 304.48 790.516C303.076 789.544 301.996 788.302 301.24 786.79C300.52 785.242 300.16 783.604 300.16 781.876C300.16 779.644 300.592 777.718 301.456 776.098C302.356 774.478 303.508 773.254 304.912 772.426C306.316 771.598 307.774 771.184 309.286 771.184C311.446 771.184 313.3 771.976 314.848 773.56C316.432 775.108 317.296 777.268 317.44 780.04L303.4 780.04C303.4 781.768 303.724 783.298 304.372 784.63C305.02 785.926 305.884 786.934 306.964 787.654C308.08 788.338 309.286 788.68 310.582 788.68C313.966 788.68 316.252 787.6 317.44 785.44C317.116 787.384 316.234 788.95 314.794 790.138C313.354 791.326 311.59 791.92 309.502 791.92ZM308.908 772.966C307.504 772.966 306.298 773.47 305.29 774.478C304.282 775.45 303.67 776.728 303.454 778.312L313.282 778.312C313.282 776.656 312.832 775.36 311.932 774.424C311.068 773.452 310.06 772.966 308.908 772.966ZM326.533 791.812C325.813 791.812 325.165 791.578 324.589 791.11C324.049 790.606 323.779 789.922 323.779 789.058C323.779 788.194 324.049 787.528 324.589 787.06C325.129 786.592 325.777 786.358 326.533 786.358C327.289 786.358 327.937 786.592 328.477 787.06C329.017 787.528 329.287 788.194 329.287 789.058C329.287 789.922 328.999 790.606 328.423 791.11C327.883 791.578 327.253 791.812 326.533 791.812ZM358.054 791.92L350.71 775.342C350.242 774.298 349.756 773.506 349.252 772.966C348.784 772.39 348.37 772.012 348.01 771.832C347.65 771.652 347.47 771.58 347.47 771.616L355.624 771.616C355.552 771.616 355.39 771.67 355.138 771.778C354.886 771.85 354.634 772.03 354.382 772.318C354.166 772.57 354.058 772.948 354.058 773.452C354.058 774.064 354.238 774.748 354.598 775.504L358.864 785.278L362.86 776.044C363.112 775.396 363.238 774.73 363.238 774.046C363.238 773.398 363.094 772.858 362.806 772.426C362.554 771.994 362.122 771.724 361.51 771.616L368.692 771.616C368.692 771.58 368.494 771.652 368.098 771.832C367.738 772.012 367.306 772.408 366.802 773.02C366.334 773.596 365.848 774.442 365.344 775.558L358.054 791.92ZM380.377 791.92C378.433 791.92 376.759 791.452 375.355 790.516C373.951 789.544 372.871 788.302 372.115 786.79C371.395 785.242 371.035 783.604 371.035 781.876C371.035 779.644 371.467 777.718 372.331 776.098C373.231 774.478 374.383 773.254 375.787 772.426C377.191 771.598 378.649 771.184 380.161 771.184C382.321 771.184 384.175 771.976 385.723 773.56C387.307 775.108 388.171 777.268 388.315 780.04L374.275 780.04C374.275 781.768 374.599 783.298 375.247 784.63C375.895 785.926 376.759 786.934 377.839 787.654C378.955 788.338 380.161 788.68 381.457 788.68C384.841 788.68 387.127 787.6 388.315 785.44C387.991 787.384 387.109 788.95 385.669 790.138C384.229 791.326 382.465 791.92 380.377 791.92ZM379.783 772.966C378.379 772.966 377.173 773.47 376.165 774.478C375.157 775.45 374.545 776.728 374.329 778.312L384.157 778.312C384.157 776.656 383.707 775.36 382.807 774.424C381.943 773.452 380.935 772.966 379.783 772.966ZM398.272 776.098C398.812 774.946 399.694 773.848 400.918 772.804C402.178 771.724 403.438 771.184 404.698 771.184C405.49 771.184 406.084 771.292 406.48 771.508L406.48 775.936C405.688 774.964 404.572 774.478 403.132 774.478C401.62 774.478 400.432 775.144 399.568 776.476C398.704 777.772 398.272 779.446 398.272 781.498L398.272 785.872C398.272 787.888 398.506 789.274 398.974 790.03C399.442 790.786 399.892 791.2 400.324 791.272L392.71 791.272C393.142 791.2 393.592 790.804 394.06 790.084C394.564 789.328 394.816 787.924 394.816 785.872L394.816 777.718C394.816 776.206 394.564 775.18 394.06 774.64C393.592 774.064 393.052 773.776 392.44 773.776L398.272 771.184L398.272 776.098ZM417.513 789.652L411.195 775.342C410.583 773.974 409.989 773.038 409.413 772.534C408.873 771.994 408.441 771.688 408.117 771.616L416.001 771.616C415.677 771.688 415.353 771.85 415.029 772.102C414.705 772.354 414.543 772.804 414.543 773.452C414.543 774.064 414.723 774.748 415.083 775.504L419.457 785.602L423.345 776.044C423.597 775.396 423.723 774.73 423.723 774.046C423.723 773.398 423.579 772.858 423.291 772.426C423.039 771.994 422.607 771.724 421.995 771.616L429.231 771.616C428.835 771.688 428.313 771.994 427.665 772.534C427.053 773.074 426.441 774.082 425.829 775.558L418.485 792.622C417.513 794.89 416.793 796.672 416.325 797.968C415.857 799.3 415.407 800.668 414.975 802.072C414.795 802.756 414.615 803.332 414.435 803.8L408.927 803.8C409.899 803.332 411.087 802.018 412.491 799.858C413.931 797.698 415.407 794.782 416.919 791.11L417.513 789.652ZM451.006 774.37C451.798 773.434 452.77 772.678 453.922 772.102C455.074 771.49 456.28 771.184 457.54 771.184C459.484 771.184 461.032 771.814 462.184 773.074C463.372 774.298 463.966 776.08 463.966 778.42L463.966 785.926C463.966 787.438 464.128 788.59 464.452 789.382C464.776 790.174 465.136 790.714 465.532 791.002C465.928 791.29 466.126 791.38 466.126 791.272L458.35 791.272C458.35 791.38 458.548 791.308 458.944 791.056C459.34 790.768 459.7 790.228 460.024 789.436C460.348 788.644 460.51 787.456 460.51 785.872L460.51 779.716C460.51 778.492 460.348 777.52 460.024 776.8C459.7 776.08 459.268 775.486 458.728 775.018C457.9 774.334 456.91 773.992 455.758 773.992C454.462 773.992 453.346 774.424 452.41 775.288C451.474 776.116 451.006 777.286 451.006 778.798L451.006 785.872C451.006 787.42 451.168 788.59 451.492 789.382C451.816 790.174 452.176 790.714 452.572 791.002C453.004 791.29 453.22 791.38 453.22 791.272L445.444 791.272C445.444 791.38 445.642 791.308 446.038 791.056C446.434 790.768 446.776 790.228 447.064 789.436C447.388 788.608 447.55 787.42 447.55 785.872L447.55 758.062C447.55 756.55 447.298 755.524 446.794 754.984C446.326 754.408 445.786 754.12 445.174 754.12L444.85 754.12L451.006 751.312L451.006 774.37ZM470.439 782.038C470.439 780.166 470.889 778.402 471.789 776.746C472.725 775.054 474.003 773.704 475.623 772.696C477.243 771.688 479.043 771.184 481.023 771.184C482.931 771.184 484.659 771.634 486.207 772.534C487.755 773.398 488.961 774.586 489.825 776.098C490.725 777.61 491.175 779.266 491.175 781.066C491.175 782.938 490.707 784.72 489.771 786.412C488.871 788.068 487.611 789.4 485.991 790.408C484.371 791.416 482.571 791.92 480.591 791.92C478.683 791.92 476.955 791.488 475.407 790.624C473.859 789.724 472.635 788.518 471.735 787.006C470.871 785.494 470.439 783.838 470.439 782.038ZM487.287 782.632C487.287 781.12 486.999 779.626 486.423 778.15C485.847 776.674 485.037 775.468 483.993 774.532C482.949 773.596 481.743 773.128 480.375 773.128C478.467 773.128 476.973 773.848 475.893 775.288C474.849 776.728 474.327 778.456 474.327 780.472C474.327 781.984 474.615 783.478 475.191 784.954C475.767 786.43 476.577 787.636 477.621 788.572C478.665 789.508 479.871 789.976 481.239 789.976C483.147 789.976 484.623 789.256 485.667 787.816C486.747 786.376 487.287 784.648 487.287 782.632ZM502.994 791.92C501.23 791.92 499.898 791.326 498.998 790.138C498.098 788.914 497.648 787.456 497.648 785.764L497.648 773.776L494.624 773.776L501.104 766.432L501.104 771.616L508.016 771.616L508.016 773.776L501.104 773.776L501.104 785.17C501.104 786.538 501.464 787.582 502.184 788.302C502.904 788.986 503.732 789.328 504.668 789.328C505.388 789.328 506.09 789.112 506.774 788.68C507.458 788.248 508.016 787.654 508.448 786.898C507.908 790.246 506.09 791.92 502.994 791.92ZM525.705 782.038C525.705 780.166 526.155 778.402 527.055 776.746C527.991 775.054 529.269 773.704 530.889 772.696C532.509 771.688 534.309 771.184 536.289 771.184C538.197 771.184 539.925 771.634 541.473 772.534C543.021 773.398 544.227 774.586 545.091 776.098C545.991 777.61 546.441 779.266 546.441 781.066C546.441 782.938 545.973 784.72 545.037 786.412C544.137 788.068 542.877 789.4 541.257 790.408C539.637 791.416 537.837 791.92 535.857 791.92C533.949 791.92 532.221 791.488 530.673 790.624C529.125 789.724 527.901 788.518 527.001 787.006C526.137 785.494 525.705 783.838 525.705 782.038ZM542.553 782.632C542.553 781.12 542.265 779.626 541.689 778.15C541.113 776.674 540.303 775.468 539.259 774.532C538.215 773.596 537.009 773.128 535.641 773.128C533.733 773.128 532.239 773.848 531.159 775.288C530.115 776.728 529.593 778.456 529.593 780.472C529.593 781.984 529.881 783.478 530.457 784.954C531.033 786.43 531.843 787.636 532.887 788.572C533.931 789.508 535.137 789.976 536.505 789.976C538.413 789.976 539.889 789.256 540.933 787.816C542.013 786.376 542.553 784.648 542.553 782.632ZM556.37 776.098C556.91 774.946 557.792 773.848 559.016 772.804C560.276 771.724 561.536 771.184 562.796 771.184C563.588 771.184 564.182 771.292 564.578 771.508L564.578 775.936C563.786 774.964 562.67 774.478 561.23 774.478C559.718 774.478 558.53 775.144 557.666 776.476C556.802 777.772 556.37 779.446 556.37 781.498L556.37 785.872C556.37 787.888 556.604 789.274 557.072 790.03C557.54 790.786 557.99 791.2 558.422 791.272L550.808 791.272C551.24 791.2 551.69 790.804 552.158 790.084C552.662 789.328 552.914 787.924 552.914 785.872L552.914 777.718C552.914 776.206 552.662 775.18 552.158 774.64C551.69 774.064 551.15 773.776 550.538 773.776L556.37 771.184L556.37 776.098ZM590.507 791.92L583.163 775.342C582.695 774.298 582.209 773.506 581.705 772.966C581.237 772.39 580.823 772.012 580.463 771.832C580.103 771.652 579.923 771.58 579.923 771.616L588.077 771.616C588.005 771.616 587.843 771.67 587.591 771.778C587.339 771.85 587.087 772.03 586.835 772.318C586.619 772.57 586.511 772.948 586.511 773.452C586.511 774.064 586.691 774.748 587.051 775.504L591.317 785.278L595.313 776.044C595.565 775.396 595.691 774.73 595.691 774.046C595.691 773.398 595.547 772.858 595.259 772.426C595.007 771.994 594.575 771.724 593.963 771.616L601.145 771.616C601.145 771.58 600.947 771.652 600.551 771.832C600.191 772.012 599.759 772.408 599.255 773.02C598.787 773.596 598.301 774.442 597.797 775.558L590.507 791.92ZM612.83 791.92C610.886 791.92 609.212 791.452 607.808 790.516C606.404 789.544 605.324 788.302 604.568 786.79C603.848 785.242 603.488 783.604 603.488 781.876C603.488 779.644 603.92 777.718 604.784 776.098C605.684 774.478 606.836 773.254 608.24 772.426C609.644 771.598 611.102 771.184 612.614 771.184C614.774 771.184 616.628 771.976 618.176 773.56C619.76 775.108 620.624 777.268 620.768 780.04L606.728 780.04C606.728 781.768 607.052 783.298 607.7 784.63C608.348 785.926 609.212 786.934 610.292 787.654C611.408 788.338 612.614 788.68 613.91 788.68C617.294 788.68 619.58 787.6 620.768 785.44C620.444 787.384 619.562 788.95 618.122 790.138C616.682 791.326 614.918 791.92 612.83 791.92ZM612.236 772.966C610.832 772.966 609.626 773.47 608.618 774.478C607.61 775.45 606.998 776.728 606.782 778.312L616.61 778.312C616.61 776.656 616.16 775.36 615.26 774.424C614.396 773.452 613.388 772.966 612.236 772.966ZM630.725 776.098C631.265 774.946 632.147 773.848 633.371 772.804C634.631 771.724 635.891 771.184 637.151 771.184C637.943 771.184 638.537 771.292 638.933 771.508L638.933 775.936C638.141 774.964 637.025 774.478 635.585 774.478C634.073 774.478 632.885 775.144 632.021 776.476C631.157 777.772 630.725 779.446 630.725 781.498L630.725 785.872C630.725 787.888 630.959 789.274 631.427 790.03C631.895 790.786 632.345 791.2 632.777 791.272L625.163 791.272C625.595 791.2 626.045 790.804 626.513 790.084C627.017 789.328 627.269 787.924 627.269 785.872L627.269 777.718C627.269 776.206 627.017 775.18 626.513 774.64C626.045 774.064 625.505 773.776 624.893 773.776L630.725 771.184L630.725 776.098ZM649.966 789.652L643.648 775.342C643.036 773.974 642.442 773.038 641.866 772.534C641.326 771.994 640.894 771.688 640.57 771.616L648.454 771.616C648.13 771.688 647.806 771.85 647.482 772.102C647.158 772.354 646.996 772.804 646.996 773.452C646.996 774.064 647.176 774.748 647.536 775.504L651.91 785.602L655.798 776.044C656.05 775.396 656.176 774.73 656.176 774.046C656.176 773.398 656.032 772.858 655.744 772.426C655.492 771.994 655.06 771.724 654.448 771.616L661.684 771.616C661.288 771.688 660.766 771.994 660.118 772.534C659.506 773.074 658.894 774.082 658.282 775.558L650.938 792.622C649.966 794.89 649.246 796.672 648.778 797.968C648.31 799.3 647.86 800.668 647.428 802.072C647.248 802.756 647.068 803.332 646.888 803.8L641.38 803.8C642.352 803.332 643.54 802.018 644.944 799.858C646.384 797.698 647.86 794.782 649.372 791.11L649.966 789.652ZM687.402 791.92C685.458 791.92 683.748 791.452 682.272 790.516C680.832 789.58 679.734 788.338 678.978 786.79C678.222 785.242 677.844 783.604 677.844 781.876C677.844 780.076 678.222 778.366 678.978 776.746C679.77 775.09 680.904 773.758 682.38 772.75C683.856 771.706 685.602 771.184 687.618 771.184C690.03 771.184 691.776 771.706 692.856 772.75C693.936 773.794 694.692 774.892 695.124 776.044L691.56 777.772C691.344 776.476 690.804 775.378 689.94 774.478C689.112 773.578 688.086 773.128 686.862 773.128C685.098 773.128 683.73 773.812 682.758 775.18C681.786 776.548 681.3 778.222 681.3 780.202C681.3 781.606 681.606 782.974 682.218 784.306C682.866 785.602 683.766 786.664 684.918 787.492C686.106 788.32 687.492 788.734 689.076 788.734C690.372 788.734 691.596 788.446 692.748 787.87C693.936 787.258 694.872 786.448 695.556 785.44C695.16 787.456 694.224 789.04 692.748 790.192C691.272 791.344 689.49 791.92 687.402 791.92ZM699.465 782.038C699.465 780.166 699.915 778.402 700.815 776.746C701.751 775.054 703.029 773.704 704.649 772.696C706.269 771.688 708.069 771.184 710.049 771.184C711.957 771.184 713.685 771.634 715.233 772.534C716.781 773.398 717.987 774.586 718.851 776.098C719.751 777.61 720.201 779.266 720.201 781.066C720.201 782.938 719.733 784.72 718.797 786.412C717.897 788.068 716.637 789.4 715.017 790.408C713.397 791.416 711.597 791.92 709.617 791.92C707.709 791.92 705.981 791.488 704.433 790.624C702.885 789.724 701.661 788.518 700.761 787.006C699.897 785.494 699.465 783.838 699.465 782.038ZM716.313 782.632C716.313 781.12 716.025 779.626 715.449 778.15C714.873 776.674 714.063 775.468 713.019 774.532C711.975 773.596 710.769 773.128 709.401 773.128C707.493 773.128 705.999 773.848 704.919 775.288C703.875 776.728 703.353 778.456 703.353 780.472C703.353 781.984 703.641 783.478 704.217 784.954C704.793 786.43 705.603 787.636 706.647 788.572C707.691 789.508 708.897 789.976 710.265 789.976C712.173 789.976 713.649 789.256 714.693 787.816C715.773 786.376 716.313 784.648 716.313 782.632ZM726.673 758.062C726.673 756.55 726.421 755.524 725.917 754.984C725.449 754.408 724.909 754.12 724.297 754.12L723.973 754.12L730.129 751.312L730.129 785.872C730.129 787.456 730.291 788.644 730.615 789.436C730.939 790.228 731.299 790.768 731.695 791.056C732.091 791.308 732.289 791.38 732.289 791.272L724.513 791.272C724.513 791.38 724.711 791.308 725.107 791.056C725.503 790.768 725.863 790.228 726.187 789.436C726.511 788.608 726.673 787.42 726.673 785.872L726.673 758.062ZM751.71 758.062C751.71 756.55 751.458 755.524 750.954 754.984C750.486 754.408 749.946 754.12 749.334 754.12L749.01 754.12L755.166 751.312L755.166 785.17C755.166 786.682 755.4 787.726 755.868 788.302C756.372 788.842 756.93 789.112 757.542 789.112L757.866 789.112L751.71 791.92L751.71 788.41C751.278 789.13 750.486 789.904 749.334 790.732C748.218 791.524 746.742 791.92 744.906 791.92C743.322 791.92 741.9 791.524 740.64 790.732C739.38 789.94 738.39 788.842 737.67 787.438C736.95 786.034 736.59 784.468 736.59 782.74C736.59 780.544 737.04 778.6 737.94 776.908C738.84 775.216 740.01 773.866 741.45 772.858C743.07 771.742 744.834 771.184 746.742 771.184C748.002 771.184 749.046 771.364 749.874 771.724C750.702 772.048 751.314 772.354 751.71 772.642L751.71 758.062ZM740.478 781.12C740.478 783.388 741 785.368 742.044 787.06C743.124 788.716 744.672 789.544 746.688 789.544C747.444 789.544 748.218 789.346 749.01 788.95C749.802 788.518 750.45 787.942 750.954 787.222C751.458 786.502 751.71 785.692 751.71 784.792L751.71 778.42C751.71 777.268 751.566 776.332 751.278 775.612C751.026 774.892 750.612 774.352 750.036 773.992C749.136 773.416 748.038 773.128 746.742 773.128C744.942 773.128 743.448 773.866 742.26 775.342C741.072 776.782 740.478 778.708 740.478 781.12Z" fill="#304E09"/>
<path d="M519.84 531.358L519.18 531.358L517.98 527.038C517.26 523.978 516.6 521.818 516.6 520.258C516.6 518.638 517.62 517.258 519.42 517.258C521.22 517.258 522.18 518.638 522.18 520.258C522.18 521.578 521.76 523.858 520.92 527.038L519.84 531.358ZM519.54 531.658L519.36 530.998L523.08 528.658C525.78 526.978 527.7 525.718 529.02 525.238C530.76 524.698 532.32 525.238 532.86 526.978C533.4 528.718 532.44 530.038 530.82 530.578C529.56 530.998 527.34 531.238 523.98 531.418L519.54 531.658ZM519.18 531.538L519.72 531.118L523.14 533.998C525.6 535.978 527.4 537.478 528.24 538.618C529.26 539.998 529.2 541.678 527.76 542.758C526.26 543.838 524.7 543.298 523.68 541.918C522.96 540.898 522 538.798 520.8 535.678L519.18 531.538ZM519.18 531.118L519.72 531.538L518.1 535.618C516.9 538.618 516.12 540.778 515.28 541.978C514.26 543.358 512.64 543.838 511.2 542.758C509.76 541.678 509.76 539.998 510.72 538.618C511.5 537.598 513.24 535.978 515.76 533.998L519.18 531.118ZM519.54 530.998L519.36 531.658L514.92 531.418C511.74 531.178 509.52 531.058 508.08 530.638C506.46 530.098 505.5 528.778 506.04 526.978C506.58 525.298 508.14 524.758 509.82 525.298C511.08 525.658 513.06 526.858 515.82 528.598L519.54 530.998Z" fill="#304E09"/>
</svg>
