<svg width="348" height="244" viewBox="0 0 348 244" fill="none" xmlns="http://www.w3.org/2000/svg">
<g clip-path="url(#clip0_473_366)">
<rect width="348" height="244" fill="white"/>
<path d="M38.6369 105.547C38.3729 105.547 38.1539 105.598 37.9799 105.7C37.8059 105.802 37.6799 105.931 37.6019 106.087L37.7279 105.187L41.9939 105.187L42.1199 106.087C42.0419 105.931 41.9159 105.802 41.7419 105.7C41.5679 105.598 41.3489 105.547 41.0849 105.547L40.1849 105.547L40.1849 110.542C40.1849 110.782 40.2149 110.965 40.2749 111.091C40.3349 111.217 40.4009 111.301 40.4729 111.343C40.5449 111.385 40.5809 111.397 40.5809 111.379L39.1499 111.379C39.1499 111.397 39.1859 111.385 39.2579 111.343C39.3299 111.301 39.3929 111.22 39.4469 111.1C39.5069 110.974 39.5369 110.788 39.5369 110.542L39.5369 105.547L38.6369 105.547ZM43.5667 108.562C43.6987 108.406 43.8607 108.28 44.0527 108.184C44.2447 108.082 44.4457 108.031 44.6557 108.031C44.9797 108.031 45.2377 108.136 45.4297 108.346C45.6277 108.55 45.7267 108.847 45.7267 109.237L45.7267 110.488C45.7267 110.74 45.7537 110.932 45.8077 111.064C45.8617 111.196 45.9217 111.286 45.9877 111.334C46.0537 111.382 46.0867 111.397 46.0867 111.379L44.7907 111.379C44.7907 111.397 44.8237 111.385 44.8897 111.343C44.9557 111.295 45.0157 111.205 45.0697 111.073C45.1237 110.941 45.1507 110.743 45.1507 110.479L45.1507 109.453C45.1507 109.249 45.1237 109.087 45.0697 108.967C45.0157 108.847 44.9437 108.748 44.8537 108.67C44.7157 108.556 44.5507 108.499 44.3587 108.499C44.1427 108.499 43.9567 108.571 43.8007 108.715C43.6447 108.853 43.5667 109.048 43.5667 109.3L43.5667 110.479C43.5667 110.737 43.5937 110.932 43.6477 111.064C43.7017 111.196 43.7617 111.286 43.8277 111.334C43.8997 111.382 43.9357 111.397 43.9357 111.379L42.6397 111.379C42.6397 111.397 42.6727 111.385 42.7387 111.343C42.8047 111.295 42.8617 111.205 42.9097 111.073C42.9637 110.935 42.9907 110.737 42.9907 110.479L42.9907 105.844C42.9907 105.592 42.9487 105.421 42.8647 105.331C42.7867 105.235 42.6967 105.187 42.5947 105.187L42.5407 105.187L43.5667 104.719L43.5667 108.562ZM47.1655 109.12C47.1655 108.868 47.1235 108.697 47.0395 108.607C46.9615 108.511 46.8715 108.463 46.7695 108.463L47.7415 108.031L47.7415 110.479C47.7415 110.743 47.7685 110.941 47.8225 111.073C47.8765 111.205 47.9365 111.295 48.0025 111.343C48.0685 111.385 48.1015 111.397 48.1015 111.379L46.8055 111.379C46.8055 111.397 46.8385 111.385 46.9045 111.343C46.9705 111.295 47.0305 111.205 47.0845 111.073C47.1385 110.941 47.1655 110.743 47.1655 110.479L47.1655 109.12ZM47.4445 106.942C47.3125 106.942 47.2075 106.9 47.1295 106.816C47.0575 106.726 47.0215 106.624 47.0215 106.51C47.0215 106.396 47.0575 106.297 47.1295 106.213C47.2075 106.123 47.3125 106.078 47.4445 106.078C47.5765 106.078 47.6785 106.123 47.7505 106.213C47.8285 106.297 47.8675 106.396 47.8675 106.51C47.8675 106.624 47.8285 106.726 47.7505 106.816C47.6785 106.9 47.5765 106.942 47.4445 106.942ZM49.9972 111.487C49.8172 111.487 49.6312 111.457 49.4392 111.397C49.2472 111.337 49.0882 111.259 48.9622 111.163L48.9622 110.371C49.0762 110.653 49.2292 110.857 49.4212 110.983C49.6192 111.103 49.8322 111.163 50.0602 111.163C50.2462 111.163 50.3962 111.112 50.5102 111.01C50.6302 110.908 50.6902 110.797 50.6902 110.677C50.6902 110.545 50.6302 110.434 50.5102 110.344C50.3902 110.254 50.2072 110.152 49.9612 110.038C49.6432 109.888 49.3972 109.741 49.2232 109.597C49.0492 109.453 48.9622 109.258 48.9622 109.012C48.9622 108.742 49.0642 108.511 49.2682 108.319C49.4722 108.127 49.7392 108.031 50.0692 108.031C50.2972 108.031 50.4952 108.058 50.6632 108.112C50.8312 108.166 50.9572 108.226 51.0412 108.292L50.8972 108.967C50.8252 108.763 50.7052 108.61 50.5372 108.508C50.3692 108.406 50.1922 108.355 50.0062 108.355C49.8442 108.355 49.7092 108.403 49.6012 108.499C49.4992 108.595 49.4482 108.703 49.4482 108.823C49.4482 108.985 49.5112 109.114 49.6372 109.21C49.7692 109.306 49.9672 109.411 50.2312 109.525C50.5432 109.657 50.7802 109.792 50.9422 109.93C51.1102 110.062 51.1942 110.251 51.1942 110.497C51.1942 110.671 51.1462 110.833 51.0502 110.983C50.9542 111.133 50.8132 111.256 50.6272 111.352C50.4472 111.442 50.2372 111.487 49.9972 111.487ZM55.3937 111.487C55.2137 111.487 55.0277 111.457 54.8357 111.397C54.6437 111.337 54.4847 111.259 54.3587 111.163L54.3587 110.371C54.4727 110.653 54.6257 110.857 54.8177 110.983C55.0157 111.103 55.2287 111.163 55.4567 111.163C55.6427 111.163 55.7927 111.112 55.9067 111.01C56.0267 110.908 56.0867 110.797 56.0867 110.677C56.0867 110.545 56.0267 110.434 55.9067 110.344C55.7867 110.254 55.6037 110.152 55.3577 110.038C55.0397 109.888 54.7937 109.741 54.6197 109.597C54.4457 109.453 54.3587 109.258 54.3587 109.012C54.3587 108.742 54.4607 108.511 54.6647 108.319C54.8687 108.127 55.1357 108.031 55.4657 108.031C55.6937 108.031 55.8917 108.058 56.0597 108.112C56.2277 108.166 56.3537 108.226 56.4377 108.292L56.2937 108.967C56.2217 108.763 56.1017 108.61 55.9337 108.508C55.7657 108.406 55.5887 108.355 55.4027 108.355C55.2407 108.355 55.1057 108.403 54.9977 108.499C54.8957 108.595 54.8447 108.703 54.8447 108.823C54.8447 108.985 54.9077 109.114 55.0337 109.21C55.1657 109.306 55.3637 109.411 55.6277 109.525C55.9397 109.657 56.1767 109.792 56.3387 109.93C56.5067 110.062 56.5907 110.251 56.5907 110.497C56.5907 110.671 56.5427 110.833 56.4467 110.983C56.3507 111.133 56.2097 111.256 56.0237 111.352C55.8437 111.442 55.6337 111.487 55.3937 111.487ZM58.5684 111.109L57.5154 108.724C57.4134 108.496 57.3144 108.34 57.2184 108.256C57.1284 108.166 57.0564 108.115 57.0024 108.103L58.3164 108.103C58.2624 108.115 58.2084 108.142 58.1544 108.184C58.1004 108.226 58.0734 108.301 58.0734 108.409C58.0734 108.511 58.1034 108.625 58.1634 108.751L58.8924 110.434L59.5404 108.841C59.5824 108.733 59.6034 108.622 59.6034 108.508C59.6034 108.4 59.5794 108.31 59.5314 108.238C59.4894 108.166 59.4174 108.121 59.3154 108.103L60.5214 108.103C60.4554 108.115 60.3684 108.166 60.2604 108.256C60.1584 108.346 60.0564 108.514 59.9544 108.76L58.7304 111.604C58.5684 111.982 58.4484 112.279 58.3704 112.495C58.2924 112.717 58.2174 112.945 58.1454 113.179C58.1154 113.293 58.0854 113.389 58.0554 113.467L57.1374 113.467C57.2994 113.389 57.4974 113.17 57.7314 112.81C57.9714 112.45 58.2174 111.964 58.4694 111.352L58.5684 111.109ZM61.8479 108.643C61.9979 108.457 62.1659 108.31 62.3519 108.202C62.5379 108.088 62.7329 108.031 62.9369 108.031C63.1589 108.031 63.3539 108.085 63.5219 108.193C63.6959 108.295 63.8219 108.445 63.8999 108.643C64.0619 108.439 64.2449 108.286 64.4489 108.184C64.6589 108.082 64.8749 108.031 65.0969 108.031C65.4209 108.031 65.6789 108.136 65.8709 108.346C66.0689 108.55 66.1679 108.847 66.1679 109.237L66.1679 110.488C66.1679 110.818 66.2099 111.046 66.2939 111.172C66.3779 111.298 66.4529 111.367 66.5189 111.379L65.2409 111.379C65.3129 111.367 65.3879 111.298 65.4659 111.172C65.5499 111.046 65.5919 110.815 65.5919 110.479L65.5919 109.453C65.5919 109.249 65.5649 109.087 65.5109 108.967C65.4569 108.847 65.3849 108.748 65.2949 108.67C65.1569 108.556 64.9919 108.499 64.7999 108.499C64.5899 108.499 64.4039 108.571 64.2419 108.715C64.0859 108.853 64.0079 109.048 64.0079 109.3L64.0079 110.479C64.0079 110.815 64.0469 111.046 64.1249 111.172C64.2089 111.298 64.2869 111.367 64.3589 111.379L63.0809 111.379C63.1529 111.367 63.2279 111.298 63.3059 111.172C63.3899 111.046 63.4319 110.815 63.4319 110.479L63.4319 109.453C63.4319 109.249 63.4049 109.087 63.3509 108.967C63.2969 108.847 63.2249 108.748 63.1349 108.67C62.9969 108.556 62.8319 108.499 62.6399 108.499C62.4239 108.499 62.2379 108.571 62.0819 108.715C61.9259 108.853 61.8479 109.048 61.8479 109.3L61.8479 110.479C61.8479 110.821 61.8899 111.055 61.9739 111.181C62.0579 111.301 62.1359 111.367 62.2079 111.379L60.9299 111.379C61.0019 111.367 61.0769 111.298 61.1549 111.172C61.2329 111.046 61.2719 110.815 61.2719 110.479L61.2719 109.12C61.2719 108.868 61.2299 108.697 61.1459 108.607C61.0679 108.511 60.9779 108.463 60.8759 108.463L61.8479 108.031L61.8479 108.643ZM67.6088 105.844C67.6088 105.592 67.5668 105.421 67.4828 105.331C67.4048 105.235 67.3148 105.187 67.2128 105.187L67.1588 105.187L68.1848 104.719L68.1848 108.616C68.2568 108.496 68.3858 108.37 68.5718 108.238C68.7638 108.1 69.0128 108.031 69.3188 108.031C69.5828 108.031 69.8198 108.097 70.0298 108.229C70.2398 108.361 70.4048 108.544 70.5248 108.778C70.6448 109.012 70.7048 109.273 70.7048 109.561C70.7048 109.927 70.6298 110.251 70.4798 110.533C70.3298 110.815 70.1348 111.04 69.8948 111.208C69.6248 111.394 69.3188 111.487 68.9768 111.487C68.7368 111.487 68.4818 111.436 68.2118 111.334C68.0858 111.286 67.9898 111.262 67.9238 111.262C67.8218 111.262 67.7168 111.322 67.6088 111.442L67.6088 105.844ZM68.1848 110.281C68.1848 110.473 68.2058 110.629 68.2478 110.749C68.2898 110.869 68.3618 110.959 68.4638 111.019C68.6138 111.115 68.8058 111.163 69.0398 111.163C69.3278 111.163 69.5678 111.043 69.7598 110.803C69.9578 110.557 70.0568 110.233 70.0568 109.831C70.0568 109.453 69.9668 109.126 69.7868 108.85C69.6128 108.568 69.3578 108.427 69.0218 108.427C68.8958 108.427 68.7668 108.463 68.6348 108.535C68.5028 108.601 68.3948 108.694 68.3108 108.814C68.2268 108.934 68.1848 109.069 68.1848 109.219L68.1848 110.281ZM71.4236 109.84C71.4236 109.528 71.4986 109.234 71.6486 108.958C71.8046 108.676 72.0176 108.451 72.2876 108.283C72.5576 108.115 72.8576 108.031 73.1876 108.031C73.5056 108.031 73.7936 108.106 74.0516 108.256C74.3096 108.4 74.5106 108.598 74.6546 108.85C74.8046 109.102 74.8796 109.378 74.8796 109.678C74.8796 109.99 74.8016 110.287 74.6456 110.569C74.4956 110.845 74.2856 111.067 74.0156 111.235C73.7456 111.403 73.4456 111.487 73.1156 111.487C72.7976 111.487 72.5096 111.415 72.2516 111.271C71.9936 111.121 71.7896 110.92 71.6396 110.668C71.4956 110.416 71.4236 110.14 71.4236 109.84ZM74.2316 109.939C74.2316 109.687 74.1836 109.438 74.0876 109.192C73.9916 108.946 73.8566 108.745 73.6826 108.589C73.5086 108.433 73.3076 108.355 73.0796 108.355C72.7616 108.355 72.5126 108.475 72.3326 108.715C72.1586 108.955 72.0716 109.243 72.0716 109.579C72.0716 109.831 72.1196 110.08 72.2156 110.326C72.3116 110.572 72.4466 110.773 72.6206 110.929C72.7946 111.085 72.9956 111.163 73.2236 111.163C73.5416 111.163 73.7876 111.043 73.9616 110.803C74.1416 110.563 74.2316 110.275 74.2316 109.939ZM75.9584 105.844C75.9584 105.592 75.9164 105.421 75.8324 105.331C75.7544 105.235 75.6644 105.187 75.5624 105.187L75.5084 105.187L76.5344 104.719L76.5344 110.479C76.5344 110.743 76.5614 110.941 76.6154 111.073C76.6694 111.205 76.7294 111.295 76.7954 111.343C76.8614 111.385 76.8944 111.397 76.8944 111.379L75.5984 111.379C75.5984 111.397 75.6314 111.385 75.6974 111.343C75.7634 111.295 75.8234 111.205 75.8774 111.073C75.9314 110.935 75.9584 110.737 75.9584 110.479L75.9584 105.844ZM80.2739 109.12C80.2739 108.868 80.2319 108.697 80.1479 108.607C80.0699 108.511 79.9799 108.463 79.8779 108.463L80.8499 108.031L80.8499 110.479C80.8499 110.743 80.8769 110.941 80.9309 111.073C80.9849 111.205 81.0449 111.295 81.1109 111.343C81.1769 111.385 81.2099 111.397 81.2099 111.379L79.9139 111.379C79.9139 111.397 79.9469 111.385 80.0129 111.343C80.0789 111.295 80.1389 111.205 80.1929 111.073C80.2469 110.941 80.2739 110.743 80.2739 110.479L80.2739 109.12ZM80.5529 106.942C80.4209 106.942 80.3159 106.9 80.2379 106.816C80.1659 106.726 80.1299 106.624 80.1299 106.51C80.1299 106.396 80.1659 106.297 80.2379 106.213C80.3159 106.123 80.4209 106.078 80.5529 106.078C80.6849 106.078 80.7869 106.123 80.8589 106.213C80.9369 106.297 80.9759 106.396 80.9759 106.51C80.9759 106.624 80.9369 106.726 80.8589 106.816C80.7869 106.9 80.6849 106.942 80.5529 106.942ZM82.8626 108.643C83.0006 108.457 83.1626 108.31 83.3486 108.202C83.5406 108.088 83.7416 108.031 83.9516 108.031C84.2756 108.031 84.5336 108.136 84.7256 108.346C84.9236 108.55 85.0226 108.847 85.0226 109.237L85.0226 110.488C85.0226 110.74 85.0496 110.932 85.1036 111.064C85.1576 111.196 85.2176 111.286 85.2836 111.334C85.3496 111.382 85.3826 111.397 85.3826 111.379L84.0866 111.379C84.0866 111.397 84.1196 111.385 84.1856 111.343C84.2516 111.295 84.3116 111.205 84.3656 111.073C84.4196 110.941 84.4466 110.743 84.4466 110.479L84.4466 109.453C84.4466 109.249 84.4196 109.087 84.3656 108.967C84.3116 108.847 84.2396 108.748 84.1496 108.67C84.0116 108.556 83.8466 108.499 83.6546 108.499C83.4386 108.499 83.2526 108.571 83.0966 108.715C82.9406 108.853 82.8626 109.048 82.8626 109.3L82.8626 110.479C82.8626 110.737 82.8896 110.932 82.9436 111.064C82.9976 111.196 83.0576 111.286 83.1236 111.334C83.1956 111.382 83.2316 111.397 83.2316 111.379L81.9356 111.379C81.9356 111.397 81.9686 111.385 82.0346 111.343C82.1006 111.295 82.1576 111.205 82.2056 111.073C82.2596 110.935 82.2866 110.737 82.2866 110.479L82.2866 109.12C82.2866 108.868 82.2446 108.697 82.1606 108.607C82.0826 108.511 81.9926 108.463 81.8906 108.463L82.8626 108.031L82.8626 108.643ZM88.6214 105.844C88.6214 105.592 88.5794 105.421 88.4954 105.331C88.4174 105.235 88.3274 105.187 88.2254 105.187L88.1714 105.187L89.1974 104.719L89.1974 110.362C89.1974 110.614 89.2364 110.788 89.3144 110.884C89.3984 110.974 89.4914 111.019 89.5934 111.019L89.6474 111.019L88.6214 111.487L88.6214 110.902C88.5494 111.022 88.4174 111.151 88.2254 111.289C88.0394 111.421 87.7934 111.487 87.4874 111.487C87.2234 111.487 86.9864 111.421 86.7764 111.289C86.5664 111.157 86.4014 110.974 86.2814 110.74C86.1614 110.506 86.1014 110.245 86.1014 109.957C86.1014 109.591 86.1764 109.267 86.3264 108.985C86.4764 108.703 86.6714 108.478 86.9114 108.31C87.1814 108.124 87.4754 108.031 87.7934 108.031C88.0034 108.031 88.1774 108.061 88.3154 108.121C88.4534 108.175 88.5554 108.226 88.6214 108.274L88.6214 105.844ZM86.7494 109.687C86.7494 110.065 86.8364 110.395 87.0104 110.677C87.1904 110.953 87.4484 111.091 87.7844 111.091C87.9104 111.091 88.0394 111.058 88.1714 110.992C88.3034 110.92 88.4114 110.824 88.4954 110.704C88.5794 110.584 88.6214 110.449 88.6214 110.299L88.6214 109.237C88.6214 109.045 88.5974 108.889 88.5494 108.769C88.5074 108.649 88.4384 108.559 88.3424 108.499C88.1924 108.403 88.0094 108.355 87.7934 108.355C87.4934 108.355 87.2444 108.478 87.0464 108.724C86.8484 108.964 86.7494 109.285 86.7494 109.687ZM90.6362 109.12C90.6362 108.868 90.5942 108.697 90.5102 108.607C90.4322 108.511 90.3422 108.463 90.2402 108.463L91.2122 108.031L91.2122 110.479C91.2122 110.743 91.2392 110.941 91.2932 111.073C91.3472 111.205 91.4072 111.295 91.4732 111.343C91.5392 111.385 91.5722 111.397 91.5722 111.379L90.2762 111.379C90.2762 111.397 90.3092 111.385 90.3752 111.343C90.4412 111.295 90.5012 111.205 90.5552 111.073C90.6092 110.941 90.6362 110.743 90.6362 110.479L90.6362 109.12ZM90.9152 106.942C90.7832 106.942 90.6782 106.9 90.6002 106.816C90.5282 106.726 90.4922 106.624 90.4922 106.51C90.4922 106.396 90.5282 106.297 90.6002 106.213C90.6782 106.123 90.7832 106.078 90.9152 106.078C91.0472 106.078 91.1492 106.123 91.2212 106.213C91.2992 106.297 91.3382 106.396 91.3382 106.51C91.3382 106.624 91.2992 106.726 91.2212 106.816C91.1492 106.9 91.0472 106.942 90.9152 106.942ZM93.8819 111.487C93.5579 111.487 93.2729 111.409 93.0269 111.253C92.7869 111.097 92.6039 110.89 92.4779 110.632C92.3519 110.374 92.2889 110.101 92.2889 109.813C92.2889 109.513 92.3519 109.228 92.4779 108.958C92.6099 108.682 92.7989 108.46 93.0449 108.292C93.2909 108.118 93.5819 108.031 93.9179 108.031C94.3199 108.031 94.6109 108.118 94.7909 108.292C94.9709 108.466 95.0969 108.649 95.1689 108.841L94.5749 109.129C94.5389 108.913 94.4489 108.73 94.3049 108.58C94.1669 108.43 93.9959 108.355 93.7919 108.355C93.4979 108.355 93.2699 108.469 93.1079 108.697C92.9459 108.925 92.8649 109.204 92.8649 109.534C92.8649 109.768 92.9159 109.996 93.0179 110.218C93.1259 110.434 93.2759 110.611 93.4679 110.749C93.6659 110.887 93.8969 110.956 94.1609 110.956C94.3769 110.956 94.5809 110.908 94.7729 110.812C94.9709 110.71 95.1269 110.575 95.2409 110.407C95.1749 110.743 95.0189 111.007 94.7729 111.199C94.5269 111.391 94.2299 111.487 93.8819 111.487ZM98.6014 111.487C98.4094 111.481 98.2474 111.43 98.1154 111.334C97.9834 111.238 97.9084 111.127 97.8904 111.001C97.7824 111.157 97.6384 111.277 97.4584 111.361C97.2844 111.445 97.1104 111.487 96.9364 111.487C96.6604 111.487 96.4294 111.409 96.2434 111.253C96.0574 111.091 95.9644 110.881 95.9644 110.623C95.9644 109.957 96.5884 109.624 97.8364 109.624L97.8364 109.525C97.8364 109.195 97.7884 108.952 97.6924 108.796C97.5604 108.574 97.3444 108.463 97.0444 108.463C96.8104 108.463 96.6154 108.532 96.4594 108.67C96.3094 108.808 96.2344 108.988 96.2344 109.21C96.1984 109.15 96.1684 109.096 96.1444 109.048C96.1264 109 96.1174 108.934 96.1174 108.85C96.1174 108.634 96.2194 108.445 96.4234 108.283C96.6274 108.115 96.8944 108.031 97.2244 108.031C97.6924 108.031 98.0254 108.187 98.2234 108.499C98.2894 108.595 98.3374 108.715 98.3674 108.859C98.3974 109.003 98.4124 109.192 98.4124 109.426L98.4124 110.497C98.4124 110.683 98.4634 110.827 98.5654 110.929C98.6734 111.031 98.8234 111.082 99.0154 111.082L99.1324 111.082L98.6014 111.487ZM97.8364 109.894C97.3564 109.894 97.0324 109.954 96.8644 110.074C96.6964 110.194 96.6124 110.356 96.6124 110.56C96.6124 110.728 96.6574 110.86 96.7474 110.956C96.8374 111.052 96.9574 111.1 97.1074 111.1C97.2214 111.1 97.3294 111.073 97.4314 111.019C97.5334 110.965 97.6204 110.89 97.6924 110.794C97.7884 110.668 97.8364 110.497 97.8364 110.281L97.8364 109.894ZM100.747 111.487C100.453 111.487 100.231 111.388 100.081 111.19C99.9309 110.986 99.8559 110.743 99.8559 110.461L99.8559 108.463L99.3519 108.463L100.432 107.239L100.432 108.103L101.584 108.103L101.584 108.463L100.432 108.463L100.432 110.362C100.432 110.59 100.492 110.764 100.612 110.884C100.732 110.998 100.87 111.055 101.026 111.055C101.146 111.055 101.263 111.019 101.377 110.947C101.491 110.875 101.584 110.776 101.656 110.65C101.566 111.208 101.263 111.487 100.747 111.487ZM103.786 111.487C103.462 111.487 103.183 111.409 102.949 111.253C102.715 111.091 102.535 110.884 102.409 110.632C102.289 110.374 102.229 110.101 102.229 109.813C102.229 109.441 102.301 109.12 102.445 108.85C102.595 108.58 102.787 108.376 103.021 108.238C103.255 108.1 103.498 108.031 103.75 108.031C104.11 108.031 104.419 108.163 104.677 108.427C104.941 108.685 105.085 109.045 105.109 109.507L102.769 109.507C102.769 109.795 102.823 110.05 102.931 110.272C103.039 110.488 103.183 110.656 103.363 110.776C103.549 110.89 103.75 110.947 103.966 110.947C104.53 110.947 104.911 110.767 105.109 110.407C105.055 110.731 104.908 110.992 104.668 111.19C104.428 111.388 104.134 111.487 103.786 111.487ZM103.687 108.328C103.453 108.328 103.252 108.412 103.084 108.58C102.916 108.742 102.814 108.955 102.778 109.219L104.416 109.219C104.416 108.943 104.341 108.727 104.191 108.571C104.047 108.409 103.879 108.328 103.687 108.328ZM107.012 111.487C106.832 111.487 106.646 111.457 106.454 111.397C106.262 111.337 106.103 111.259 105.977 111.163L105.977 110.371C106.091 110.653 106.244 110.857 106.436 110.983C106.634 111.103 106.847 111.163 107.075 111.163C107.261 111.163 107.411 111.112 107.525 111.01C107.645 110.908 107.705 110.797 107.705 110.677C107.705 110.545 107.645 110.434 107.525 110.344C107.405 110.254 107.222 110.152 106.976 110.038C106.658 109.888 106.412 109.741 106.238 109.597C106.064 109.453 105.977 109.258 105.977 109.012C105.977 108.742 106.079 108.511 106.283 108.319C106.487 108.127 106.754 108.031 107.084 108.031C107.312 108.031 107.51 108.058 107.678 108.112C107.846 108.166 107.972 108.226 108.056 108.292L107.912 108.967C107.84 108.763 107.72 108.61 107.552 108.508C107.384 108.406 107.207 108.355 107.021 108.355C106.859 108.355 106.724 108.403 106.616 108.499C106.514 108.595 106.463 108.703 106.463 108.823C106.463 108.985 106.526 109.114 106.652 109.21C106.784 109.306 106.982 109.411 107.246 109.525C107.558 109.657 107.795 109.792 107.957 109.93C108.125 110.062 108.209 110.251 108.209 110.497C108.209 110.671 108.161 110.833 108.065 110.983C107.969 111.133 107.828 111.256 107.642 111.352C107.462 111.442 107.252 111.487 107.012 111.487ZM112.48 111.487C112.186 111.487 111.964 111.388 111.814 111.19C111.664 110.986 111.589 110.743 111.589 110.461L111.589 108.463L111.085 108.463L112.165 107.239L112.165 108.103L113.317 108.103L113.317 108.463L112.165 108.463L112.165 110.362C112.165 110.59 112.225 110.764 112.345 110.884C112.465 110.998 112.603 111.055 112.759 111.055C112.879 111.055 112.996 111.019 113.11 110.947C113.224 110.875 113.317 110.776 113.389 110.65C113.299 111.208 112.996 111.487 112.48 111.487ZM114.899 108.562C115.031 108.406 115.193 108.28 115.385 108.184C115.577 108.082 115.778 108.031 115.988 108.031C116.312 108.031 116.57 108.136 116.762 108.346C116.96 108.55 117.059 108.847 117.059 109.237L117.059 110.488C117.059 110.74 117.086 110.932 117.14 111.064C117.194 111.196 117.254 111.286 117.32 111.334C117.386 111.382 117.419 111.397 117.419 111.379L116.123 111.379C116.123 111.397 116.156 111.385 116.222 111.343C116.288 111.295 116.348 111.205 116.402 111.073C116.456 110.941 116.483 110.743 116.483 110.479L116.483 109.453C116.483 109.249 116.456 109.087 116.402 108.967C116.348 108.847 116.276 108.748 116.186 108.67C116.048 108.556 115.883 108.499 115.691 108.499C115.475 108.499 115.289 108.571 115.133 108.715C114.977 108.853 114.899 109.048 114.899 109.3L114.899 110.479C114.899 110.737 114.926 110.932 114.98 111.064C115.034 111.196 115.094 111.286 115.16 111.334C115.232 111.382 115.268 111.397 115.268 111.379L113.972 111.379C113.972 111.397 114.005 111.385 114.071 111.343C114.137 111.295 114.194 111.205 114.242 111.073C114.296 110.935 114.323 110.737 114.323 110.479L114.323 105.844C114.323 105.592 114.281 105.421 114.197 105.331C114.119 105.235 114.029 105.187 113.927 105.187L113.873 105.187L114.899 104.719L114.899 108.562ZM120.847 111.487C120.655 111.481 120.493 111.43 120.361 111.334C120.229 111.238 120.154 111.127 120.136 111.001C120.028 111.157 119.884 111.277 119.704 111.361C119.53 111.445 119.356 111.487 119.182 111.487C118.906 111.487 118.675 111.409 118.489 111.253C118.303 111.091 118.21 110.881 118.21 110.623C118.21 109.957 118.834 109.624 120.082 109.624L120.082 109.525C120.082 109.195 120.034 108.952 119.938 108.796C119.806 108.574 119.59 108.463 119.29 108.463C119.056 108.463 118.861 108.532 118.705 108.67C118.555 108.808 118.48 108.988 118.48 109.21C118.444 109.15 118.414 109.096 118.39 109.048C118.372 109 118.363 108.934 118.363 108.85C118.363 108.634 118.465 108.445 118.669 108.283C118.873 108.115 119.14 108.031 119.47 108.031C119.938 108.031 120.271 108.187 120.469 108.499C120.535 108.595 120.583 108.715 120.613 108.859C120.643 109.003 120.658 109.192 120.658 109.426L120.658 110.497C120.658 110.683 120.709 110.827 120.811 110.929C120.919 111.031 121.069 111.082 121.261 111.082L121.378 111.082L120.847 111.487ZM120.082 109.894C119.602 109.894 119.278 109.954 119.11 110.074C118.942 110.194 118.858 110.356 118.858 110.56C118.858 110.728 118.903 110.86 118.993 110.956C119.083 111.052 119.203 111.1 119.353 111.1C119.467 111.1 119.575 111.073 119.677 111.019C119.779 110.965 119.866 110.89 119.938 110.794C120.034 110.668 120.082 110.497 120.082 110.281L120.082 109.894ZM122.992 111.487C122.698 111.487 122.476 111.388 122.326 111.19C122.176 110.986 122.101 110.743 122.101 110.461L122.101 108.463L121.597 108.463L122.677 107.239L122.677 108.103L123.829 108.103L123.829 108.463L122.677 108.463L122.677 110.362C122.677 110.59 122.737 110.764 122.857 110.884C122.977 110.998 123.115 111.055 123.271 111.055C123.391 111.055 123.508 111.019 123.622 110.947C123.736 110.875 123.829 110.776 123.901 110.65C123.811 111.208 123.508 111.487 122.992 111.487ZM128.028 111.487C127.734 111.487 127.512 111.388 127.362 111.19C127.212 110.986 127.137 110.743 127.137 110.461L127.137 108.463L126.633 108.463L127.713 107.239L127.713 108.103L128.865 108.103L128.865 108.463L127.713 108.463L127.713 110.362C127.713 110.59 127.773 110.764 127.893 110.884C128.013 110.998 128.151 111.055 128.307 111.055C128.427 111.055 128.544 111.019 128.658 110.947C128.772 110.875 128.865 110.776 128.937 110.65C128.847 111.208 128.544 111.487 128.028 111.487ZM130.447 108.562C130.579 108.406 130.741 108.28 130.933 108.184C131.125 108.082 131.326 108.031 131.536 108.031C131.86 108.031 132.118 108.136 132.31 108.346C132.508 108.55 132.607 108.847 132.607 109.237L132.607 110.488C132.607 110.74 132.634 110.932 132.688 111.064C132.742 111.196 132.802 111.286 132.868 111.334C132.934 111.382 132.967 111.397 132.967 111.379L131.671 111.379C131.671 111.397 131.704 111.385 131.77 111.343C131.836 111.295 131.896 111.205 131.95 111.073C132.004 110.941 132.031 110.743 132.031 110.479L132.031 109.453C132.031 109.249 132.004 109.087 131.95 108.967C131.896 108.847 131.824 108.748 131.734 108.67C131.596 108.556 131.431 108.499 131.239 108.499C131.023 108.499 130.837 108.571 130.681 108.715C130.525 108.853 130.447 109.048 130.447 109.3L130.447 110.479C130.447 110.737 130.474 110.932 130.528 111.064C130.582 111.196 130.642 111.286 130.708 111.334C130.78 111.382 130.816 111.397 130.816 111.379L129.52 111.379C129.52 111.397 129.553 111.385 129.619 111.343C129.685 111.295 129.742 111.205 129.79 111.073C129.844 110.935 129.871 110.737 129.871 110.479L129.871 105.844C129.871 105.592 129.829 105.421 129.745 105.331C129.667 105.235 129.577 105.187 129.475 105.187L129.421 105.187L130.447 104.719L130.447 108.562ZM135.242 111.487C134.918 111.487 134.639 111.409 134.405 111.253C134.171 111.091 133.991 110.884 133.865 110.632C133.745 110.374 133.685 110.101 133.685 109.813C133.685 109.441 133.757 109.12 133.901 108.85C134.051 108.58 134.243 108.376 134.477 108.238C134.711 108.1 134.954 108.031 135.206 108.031C135.566 108.031 135.875 108.163 136.133 108.427C136.397 108.685 136.541 109.045 136.565 109.507L134.225 109.507C134.225 109.795 134.279 110.05 134.387 110.272C134.495 110.488 134.639 110.656 134.819 110.776C135.005 110.89 135.206 110.947 135.422 110.947C135.986 110.947 136.367 110.767 136.565 110.407C136.511 110.731 136.364 110.992 136.124 111.19C135.884 111.388 135.59 111.487 135.242 111.487ZM135.143 108.328C134.909 108.328 134.708 108.412 134.54 108.58C134.372 108.742 134.27 108.955 134.234 109.219L135.872 109.219C135.872 108.943 135.797 108.727 135.647 108.571C135.503 108.409 135.335 108.328 135.143 108.328ZM45.8174 115.502C45.7094 115.394 45.5774 115.31 45.4214 115.25C45.2714 115.184 45.1184 115.151 44.9624 115.151C44.6624 115.151 44.4434 115.259 44.3054 115.475C44.1674 115.685 44.0984 115.958 44.0984 116.294L44.0984 118.103L45.0344 118.103L45.0344 118.463L44.0984 118.463L44.0984 120.479C44.0984 120.737 44.1254 120.935 44.1794 121.073C44.2334 121.205 44.2934 121.295 44.3594 121.343C44.4254 121.385 44.4584 121.397 44.4584 121.379L43.1534 121.379C43.1534 121.397 43.1864 121.385 43.2524 121.343C43.3244 121.295 43.3874 121.205 43.4414 121.073C43.4954 120.935 43.5224 120.737 43.5224 120.479L43.5224 118.463L43.0184 118.463L43.0184 118.103L43.5224 118.103L43.5224 116.852C43.5224 116.432 43.5914 116.063 43.7294 115.745C43.8734 115.421 44.0714 115.169 44.3234 114.989C44.5814 114.809 44.8754 114.719 45.2054 114.719C45.4634 114.719 45.6674 114.746 45.8174 114.8L45.8174 115.502ZM45.4651 119.84C45.4651 119.528 45.5401 119.234 45.6901 118.958C45.8461 118.676 46.0591 118.451 46.3291 118.283C46.5991 118.115 46.8991 118.031 47.2291 118.031C47.5471 118.031 47.8351 118.106 48.0931 118.256C48.3511 118.4 48.5521 118.598 48.6961 118.85C48.8461 119.102 48.9211 119.378 48.9211 119.678C48.9211 119.99 48.8431 120.287 48.6871 120.569C48.5371 120.845 48.3271 121.067 48.0571 121.235C47.7871 121.403 47.4871 121.487 47.1571 121.487C46.8391 121.487 46.5511 121.415 46.2931 121.271C46.0351 121.121 45.8311 120.92 45.6811 120.668C45.5371 120.416 45.4651 120.14 45.4651 119.84ZM48.2731 119.939C48.2731 119.687 48.2251 119.438 48.1291 119.192C48.0331 118.946 47.8981 118.745 47.7241 118.589C47.5501 118.433 47.3491 118.355 47.1211 118.355C46.8031 118.355 46.5541 118.475 46.3741 118.715C46.2001 118.955 46.1131 119.243 46.1131 119.579C46.1131 119.831 46.1611 120.08 46.2571 120.326C46.3531 120.572 46.4881 120.773 46.6621 120.929C46.8361 121.085 47.0371 121.163 47.2651 121.163C47.5831 121.163 47.8291 121.043 48.0031 120.803C48.1831 120.563 48.2731 120.275 48.2731 119.939ZM49.6399 119.84C49.6399 119.528 49.7149 119.234 49.8649 118.958C50.0209 118.676 50.2339 118.451 50.5039 118.283C50.7739 118.115 51.0739 118.031 51.4039 118.031C51.7219 118.031 52.0099 118.106 52.2679 118.256C52.5259 118.4 52.7269 118.598 52.8709 118.85C53.0209 119.102 53.0959 119.378 53.0959 119.678C53.0959 119.99 53.0179 120.287 52.8619 120.569C52.7119 120.845 52.5019 121.067 52.2319 121.235C51.9619 121.403 51.6619 121.487 51.3319 121.487C51.0139 121.487 50.7259 121.415 50.4679 121.271C50.2099 121.121 50.0059 120.92 49.8559 120.668C49.7119 120.416 49.6399 120.14 49.6399 119.84ZM52.4479 119.939C52.4479 119.687 52.3999 119.438 52.3039 119.192C52.2079 118.946 52.0729 118.745 51.8989 118.589C51.7249 118.433 51.5239 118.355 51.2959 118.355C50.9779 118.355 50.7289 118.475 50.5489 118.715C50.3749 118.955 50.2879 119.243 50.2879 119.579C50.2879 119.831 50.3359 120.08 50.4319 120.326C50.5279 120.572 50.6629 120.773 50.8369 120.929C51.0109 121.085 51.2119 121.163 51.4399 121.163C51.7579 121.163 52.0039 121.043 52.1779 120.803C52.3579 120.563 52.4479 120.275 52.4479 119.939ZM56.3348 115.844C56.3348 115.592 56.2928 115.421 56.2088 115.331C56.1308 115.235 56.0408 115.187 55.9388 115.187L55.8848 115.187L56.9108 114.719L56.9108 120.362C56.9108 120.614 56.9498 120.788 57.0278 120.884C57.1118 120.974 57.2048 121.019 57.3068 121.019L57.3608 121.019L56.3348 121.487L56.3348 120.902C56.2628 121.022 56.1308 121.151 55.9388 121.289C55.7528 121.421 55.5068 121.487 55.2008 121.487C54.9368 121.487 54.6998 121.421 54.4898 121.289C54.2798 121.157 54.1148 120.974 53.9948 120.74C53.8748 120.506 53.8148 120.245 53.8148 119.957C53.8148 119.591 53.8898 119.267 54.0398 118.985C54.1898 118.703 54.3848 118.478 54.6248 118.31C54.8948 118.124 55.1888 118.031 55.5068 118.031C55.7168 118.031 55.8908 118.061 56.0288 118.121C56.1668 118.175 56.2688 118.226 56.3348 118.274L56.3348 115.844ZM54.4628 119.687C54.4628 120.065 54.5498 120.395 54.7238 120.677C54.9038 120.953 55.1618 121.091 55.4978 121.091C55.6238 121.091 55.7528 121.058 55.8848 120.992C56.0168 120.92 56.1248 120.824 56.2088 120.704C56.2928 120.584 56.3348 120.449 56.3348 120.299L56.3348 119.237C56.3348 119.045 56.3108 118.889 56.2628 118.769C56.2208 118.649 56.1518 118.559 56.0558 118.499C55.9058 118.403 55.7228 118.355 55.5068 118.355C55.2068 118.355 54.9578 118.478 54.7598 118.724C54.5618 118.964 54.4628 119.285 54.4628 119.687ZM60.6523 119.12C60.6523 118.868 60.6103 118.697 60.5263 118.607C60.4483 118.511 60.3583 118.463 60.2563 118.463L61.2283 118.031L61.2283 120.479C61.2283 120.743 61.2553 120.941 61.3093 121.073C61.3633 121.205 61.4233 121.295 61.4893 121.343C61.5553 121.385 61.5883 121.397 61.5883 121.379L60.2923 121.379C60.2923 121.397 60.3253 121.385 60.3913 121.343C60.4573 121.295 60.5173 121.205 60.5713 121.073C60.6253 120.941 60.6523 120.743 60.6523 120.479L60.6523 119.12ZM60.9313 116.942C60.7993 116.942 60.6943 116.9 60.6163 116.816C60.5443 116.726 60.5083 116.624 60.5083 116.51C60.5083 116.396 60.5443 116.297 60.6163 116.213C60.6943 116.123 60.7993 116.078 60.9313 116.078C61.0633 116.078 61.1653 116.123 61.2373 116.213C61.3153 116.297 61.3543 116.396 61.3543 116.51C61.3543 116.624 61.3153 116.726 61.2373 116.816C61.1653 116.9 61.0633 116.942 60.9313 116.942ZM63.484 121.487C63.304 121.487 63.118 121.457 62.926 121.397C62.734 121.337 62.575 121.259 62.449 121.163L62.449 120.371C62.563 120.653 62.716 120.857 62.908 120.983C63.106 121.103 63.319 121.163 63.547 121.163C63.733 121.163 63.883 121.112 63.997 121.01C64.117 120.908 64.177 120.797 64.177 120.677C64.177 120.545 64.117 120.434 63.997 120.344C63.877 120.254 63.694 120.152 63.448 120.038C63.13 119.888 62.884 119.741 62.71 119.597C62.536 119.453 62.449 119.258 62.449 119.012C62.449 118.742 62.551 118.511 62.755 118.319C62.959 118.127 63.226 118.031 63.556 118.031C63.784 118.031 63.982 118.058 64.15 118.112C64.318 118.166 64.444 118.226 64.528 118.292L64.384 118.967C64.312 118.763 64.192 118.61 64.024 118.508C63.856 118.406 63.679 118.355 63.493 118.355C63.331 118.355 63.196 118.403 63.088 118.499C62.986 118.595 62.935 118.703 62.935 118.823C62.935 118.985 62.998 119.114 63.124 119.21C63.256 119.306 63.454 119.411 63.718 119.525C64.03 119.657 64.267 119.792 64.429 119.93C64.597 120.062 64.681 120.251 64.681 120.497C64.681 120.671 64.633 120.833 64.537 120.983C64.441 121.133 64.3 121.256 64.114 121.352C63.934 121.442 63.724 121.487 63.484 121.487ZM67.7015 119.84C67.7015 119.528 67.7765 119.234 67.9265 118.958C68.0825 118.676 68.2955 118.451 68.5655 118.283C68.8355 118.115 69.1355 118.031 69.4655 118.031C69.7835 118.031 70.0715 118.106 70.3295 118.256C70.5875 118.4 70.7885 118.598 70.9325 118.85C71.0825 119.102 71.1575 119.378 71.1575 119.678C71.1575 119.99 71.0795 120.287 70.9235 120.569C70.7735 120.845 70.5635 121.067 70.2935 121.235C70.0235 121.403 69.7235 121.487 69.3935 121.487C69.0755 121.487 68.7875 121.415 68.5295 121.271C68.2715 121.121 68.0675 120.92 67.9175 120.668C67.7735 120.416 67.7015 120.14 67.7015 119.84ZM70.5095 119.939C70.5095 119.687 70.4615 119.438 70.3655 119.192C70.2695 118.946 70.1345 118.745 69.9605 118.589C69.7865 118.433 69.5855 118.355 69.3575 118.355C69.0395 118.355 68.7905 118.475 68.6105 118.715C68.4365 118.955 68.3495 119.243 68.3495 119.579C68.3495 119.831 68.3975 120.08 68.4935 120.326C68.5895 120.572 68.7245 120.773 68.8985 120.929C69.0725 121.085 69.2735 121.163 69.5015 121.163C69.8195 121.163 70.0655 121.043 70.2395 120.803C70.4195 120.563 70.5095 120.275 70.5095 119.939ZM72.8123 118.643C72.9503 118.457 73.1123 118.31 73.2983 118.202C73.4903 118.088 73.6913 118.031 73.9013 118.031C74.2253 118.031 74.4833 118.136 74.6753 118.346C74.8733 118.55 74.9723 118.847 74.9723 119.237L74.9723 120.488C74.9723 120.74 74.9993 120.932 75.0533 121.064C75.1073 121.196 75.1673 121.286 75.2333 121.334C75.2993 121.382 75.3323 121.397 75.3323 121.379L74.0363 121.379C74.0363 121.397 74.0693 121.385 74.1353 121.343C74.2013 121.295 74.2613 121.205 74.3153 121.073C74.3693 120.941 74.3963 120.743 74.3963 120.479L74.3963 119.453C74.3963 119.249 74.3693 119.087 74.3153 118.967C74.2613 118.847 74.1893 118.748 74.0993 118.67C73.9613 118.556 73.7963 118.499 73.6043 118.499C73.3883 118.499 73.2023 118.571 73.0463 118.715C72.8903 118.853 72.8123 119.048 72.8123 119.3L72.8123 120.479C72.8123 120.737 72.8393 120.932 72.8933 121.064C72.9473 121.196 73.0073 121.286 73.0733 121.334C73.1453 121.382 73.1813 121.397 73.1813 121.379L71.8853 121.379C71.8853 121.397 71.9183 121.385 71.9843 121.343C72.0503 121.295 72.1073 121.205 72.1553 121.073C72.2093 120.935 72.2363 120.737 72.2363 120.479L72.2363 119.12C72.2363 118.868 72.1943 118.697 72.1103 118.607C72.0323 118.511 71.9423 118.463 71.8403 118.463L72.8123 118.031L72.8123 118.643ZM79.6048 121.487C79.3108 121.487 79.0888 121.388 78.9388 121.19C78.7888 120.986 78.7138 120.743 78.7138 120.461L78.7138 118.463L78.2098 118.463L79.2898 117.239L79.2898 118.103L80.4418 118.103L80.4418 118.463L79.2898 118.463L79.2898 120.362C79.2898 120.59 79.3498 120.764 79.4698 120.884C79.5898 120.998 79.7278 121.055 79.8838 121.055C80.0038 121.055 80.1208 121.019 80.2348 120.947C80.3488 120.875 80.4418 120.776 80.5138 120.65C80.4238 121.208 80.1208 121.487 79.6048 121.487ZM82.0232 118.562C82.1552 118.406 82.3172 118.28 82.5092 118.184C82.7012 118.082 82.9022 118.031 83.1122 118.031C83.4362 118.031 83.6942 118.136 83.8862 118.346C84.0842 118.55 84.1832 118.847 84.1832 119.237L84.1832 120.488C84.1832 120.74 84.2102 120.932 84.2642 121.064C84.3182 121.196 84.3782 121.286 84.4442 121.334C84.5102 121.382 84.5432 121.397 84.5432 121.379L83.2472 121.379C83.2472 121.397 83.2802 121.385 83.3462 121.343C83.4122 121.295 83.4722 121.205 83.5262 121.073C83.5802 120.941 83.6072 120.743 83.6072 120.479L83.6072 119.453C83.6072 119.249 83.5802 119.087 83.5262 118.967C83.4722 118.847 83.4002 118.748 83.3102 118.67C83.1722 118.556 83.0072 118.499 82.8152 118.499C82.5992 118.499 82.4132 118.571 82.2572 118.715C82.1012 118.853 82.0232 119.048 82.0232 119.3L82.0232 120.479C82.0232 120.737 82.0502 120.932 82.1042 121.064C82.1582 121.196 82.2182 121.286 82.2842 121.334C82.3562 121.382 82.3922 121.397 82.3922 121.379L81.0962 121.379C81.0962 121.397 81.1292 121.385 81.1952 121.343C81.2612 121.295 81.3182 121.205 81.3662 121.073C81.4202 120.935 81.4472 120.737 81.4472 120.479L81.4472 115.844C81.4472 115.592 81.4052 115.421 81.3212 115.331C81.2432 115.235 81.1532 115.187 81.0512 115.187L80.9972 115.187L82.0232 114.719L82.0232 118.562ZM86.819 121.487C86.495 121.487 86.216 121.409 85.982 121.253C85.748 121.091 85.568 120.884 85.442 120.632C85.322 120.374 85.262 120.101 85.262 119.813C85.262 119.441 85.334 119.12 85.478 118.85C85.628 118.58 85.82 118.376 86.054 118.238C86.288 118.1 86.531 118.031 86.783 118.031C87.143 118.031 87.452 118.163 87.71 118.427C87.974 118.685 88.118 119.045 88.142 119.507L85.802 119.507C85.802 119.795 85.856 120.05 85.964 120.272C86.072 120.488 86.216 120.656 86.396 120.776C86.582 120.89 86.783 120.947 86.999 120.947C87.563 120.947 87.944 120.767 88.142 120.407C88.088 120.731 87.941 120.992 87.701 121.19C87.461 121.388 87.167 121.487 86.819 121.487ZM86.72 118.328C86.486 118.328 86.285 118.412 86.117 118.58C85.949 118.742 85.847 118.955 85.811 119.219L87.449 119.219C87.449 118.943 87.374 118.727 87.224 118.571C87.08 118.409 86.912 118.328 86.72 118.328ZM92.7253 121.487C92.4013 121.487 92.1223 121.409 91.8883 121.253C91.6543 121.091 91.4743 120.884 91.3483 120.632C91.2283 120.374 91.1683 120.101 91.1683 119.813C91.1683 119.441 91.2403 119.12 91.3843 118.85C91.5343 118.58 91.7263 118.376 91.9603 118.238C92.1943 118.1 92.4373 118.031 92.6893 118.031C93.0493 118.031 93.3583 118.163 93.6163 118.427C93.8803 118.685 94.0243 119.045 94.0483 119.507L91.7083 119.507C91.7083 119.795 91.7623 120.05 91.8703 120.272C91.9783 120.488 92.1223 120.656 92.3023 120.776C92.4883 120.89 92.6893 120.947 92.9053 120.947C93.4693 120.947 93.8503 120.767 94.0483 120.407C93.9943 120.731 93.8473 120.992 93.6073 121.19C93.3673 121.388 93.0733 121.487 92.7253 121.487ZM92.6263 118.328C92.3923 118.328 92.1913 118.412 92.0233 118.58C91.8553 118.742 91.7533 118.955 91.7173 119.219L93.3553 119.219C93.3553 118.943 93.2803 118.727 93.1303 118.571C92.9863 118.409 92.8183 118.328 92.6263 118.328ZM96.5628 121.379C96.5748 121.379 96.5958 121.376 96.6258 121.37C96.6618 121.358 96.6948 121.337 96.7248 121.307C96.7548 121.277 96.7698 121.232 96.7698 121.172C96.7698 121.052 96.7218 120.923 96.6258 120.785L96.1758 120.119L95.7888 120.65C95.6388 120.86 95.5638 121.022 95.5638 121.136C95.5638 121.202 95.5818 121.253 95.6178 121.289C95.6538 121.325 95.6898 121.349 95.7258 121.361C95.7618 121.373 95.7858 121.379 95.7978 121.379L94.6188 121.379C94.6188 121.385 94.6488 121.37 94.7088 121.334C94.7688 121.298 94.8558 121.223 94.9698 121.109C95.0898 120.989 95.2338 120.818 95.4018 120.596L95.9778 119.822L95.4018 118.94C95.2518 118.706 95.1168 118.529 94.9968 118.409C94.8828 118.283 94.7898 118.199 94.7178 118.157C94.6518 118.115 94.6188 118.097 94.6188 118.103L96.0228 118.103C96.0108 118.103 95.9868 118.112 95.9508 118.13C95.9208 118.142 95.8908 118.169 95.8608 118.211C95.8308 118.247 95.8158 118.298 95.8158 118.364C95.8158 118.454 95.8548 118.559 95.9328 118.679L96.3648 119.336L96.7608 118.796C96.9048 118.604 96.9768 118.451 96.9768 118.337C96.9768 118.277 96.9618 118.229 96.9318 118.193C96.9018 118.157 96.8688 118.133 96.8328 118.121C96.8028 118.109 96.7818 118.103 96.7698 118.103L97.9668 118.103C97.9668 118.097 97.9308 118.112 97.8588 118.148C97.7868 118.184 97.6908 118.256 97.5708 118.364C97.4568 118.466 97.3218 118.616 97.1658 118.814L96.5448 119.624L97.2378 120.668C97.3758 120.878 97.4988 121.037 97.6068 121.145C97.7148 121.247 97.8018 121.313 97.8678 121.343C97.9338 121.373 97.9668 121.385 97.9668 121.379L96.5628 121.379ZM99.6263 121.487C99.3323 121.487 99.1103 121.388 98.9603 121.19C98.8103 120.986 98.7353 120.743 98.7353 120.461L98.7353 118.463L98.2313 118.463L99.3113 117.239L99.3113 118.103L100.463 118.103L100.463 118.463L99.3113 118.463L99.3113 120.362C99.3113 120.59 99.3713 120.764 99.4913 120.884C99.6113 120.998 99.7493 121.055 99.9053 121.055C100.025 121.055 100.142 121.019 100.256 120.947C100.37 120.875 100.463 120.776 100.535 120.65C100.445 121.208 100.142 121.487 99.6263 121.487ZM102.045 118.85C102.135 118.658 102.282 118.475 102.486 118.301C102.696 118.121 102.906 118.031 103.116 118.031C103.248 118.031 103.347 118.049 103.413 118.085L103.413 118.823C103.281 118.661 103.095 118.58 102.855 118.58C102.603 118.58 102.405 118.691 102.261 118.913C102.117 119.129 102.045 119.408 102.045 119.75L102.045 120.479C102.045 120.815 102.084 121.046 102.162 121.172C102.24 121.298 102.315 121.367 102.387 121.379L101.118 121.379C101.19 121.367 101.265 121.301 101.343 121.181C101.427 121.055 101.469 120.821 101.469 120.479L101.469 119.12C101.469 118.868 101.427 118.697 101.343 118.607C101.265 118.511 101.175 118.463 101.073 118.463L102.045 118.031L102.045 118.85ZM105.549 121.487C105.225 121.487 104.946 121.409 104.712 121.253C104.478 121.091 104.298 120.884 104.172 120.632C104.052 120.374 103.992 120.101 103.992 119.813C103.992 119.441 104.064 119.12 104.208 118.85C104.358 118.58 104.55 118.376 104.784 118.238C105.018 118.1 105.261 118.031 105.513 118.031C105.873 118.031 106.182 118.163 106.44 118.427C106.704 118.685 106.848 119.045 106.872 119.507L104.532 119.507C104.532 119.795 104.586 120.05 104.694 120.272C104.802 120.488 104.946 120.656 105.126 120.776C105.312 120.89 105.513 120.947 105.729 120.947C106.293 120.947 106.674 120.767 106.872 120.407C106.818 120.731 106.671 120.992 106.431 121.19C106.191 121.388 105.897 121.487 105.549 121.487ZM105.45 118.328C105.216 118.328 105.015 118.412 104.847 118.58C104.679 118.742 104.577 118.955 104.541 119.219L106.179 119.219C106.179 118.943 106.104 118.727 105.954 118.571C105.81 118.409 105.642 118.328 105.45 118.328ZM108.531 118.643C108.681 118.457 108.849 118.31 109.035 118.202C109.221 118.088 109.416 118.031 109.62 118.031C109.842 118.031 110.037 118.085 110.205 118.193C110.379 118.295 110.505 118.445 110.583 118.643C110.745 118.439 110.928 118.286 111.132 118.184C111.342 118.082 111.558 118.031 111.78 118.031C112.104 118.031 112.362 118.136 112.554 118.346C112.752 118.55 112.851 118.847 112.851 119.237L112.851 120.488C112.851 120.818 112.893 121.046 112.977 121.172C113.061 121.298 113.136 121.367 113.202 121.379L111.924 121.379C111.996 121.367 112.071 121.298 112.149 121.172C112.233 121.046 112.275 120.815 112.275 120.479L112.275 119.453C112.275 119.249 112.248 119.087 112.194 118.967C112.14 118.847 112.068 118.748 111.978 118.67C111.84 118.556 111.675 118.499 111.483 118.499C111.273 118.499 111.087 118.571 110.925 118.715C110.769 118.853 110.691 119.048 110.691 119.3L110.691 120.479C110.691 120.815 110.73 121.046 110.808 121.172C110.892 121.298 110.97 121.367 111.042 121.379L109.764 121.379C109.836 121.367 109.911 121.298 109.989 121.172C110.073 121.046 110.115 120.815 110.115 120.479L110.115 119.453C110.115 119.249 110.088 119.087 110.034 118.967C109.98 118.847 109.908 118.748 109.818 118.67C109.68 118.556 109.515 118.499 109.323 118.499C109.107 118.499 108.921 118.571 108.765 118.715C108.609 118.853 108.531 119.048 108.531 119.3L108.531 120.479C108.531 120.821 108.573 121.055 108.657 121.181C108.741 121.301 108.819 121.367 108.891 121.379L107.613 121.379C107.685 121.367 107.76 121.298 107.838 121.172C107.916 121.046 107.955 120.815 107.955 120.479L107.955 119.12C107.955 118.868 107.913 118.697 107.829 118.607C107.751 118.511 107.661 118.463 107.559 118.463L108.531 118.031L108.531 118.643ZM115.489 121.487C115.165 121.487 114.886 121.409 114.652 121.253C114.418 121.091 114.238 120.884 114.112 120.632C113.992 120.374 113.932 120.101 113.932 119.813C113.932 119.441 114.004 119.12 114.148 118.85C114.298 118.58 114.49 118.376 114.724 118.238C114.958 118.1 115.201 118.031 115.453 118.031C115.813 118.031 116.122 118.163 116.38 118.427C116.644 118.685 116.788 119.045 116.812 119.507L114.472 119.507C114.472 119.795 114.526 120.05 114.634 120.272C114.742 120.488 114.886 120.656 115.066 120.776C115.252 120.89 115.453 120.947 115.669 120.947C116.233 120.947 116.614 120.767 116.812 120.407C116.758 120.731 116.611 120.992 116.371 121.19C116.131 121.388 115.837 121.487 115.489 121.487ZM115.39 118.328C115.156 118.328 114.955 118.412 114.787 118.58C114.619 118.742 114.517 118.955 114.481 119.219L116.119 119.219C116.119 118.943 116.044 118.727 115.894 118.571C115.75 118.409 115.582 118.328 115.39 118.328ZM121.395 121.487C121.071 121.487 120.792 121.409 120.558 121.253C120.324 121.091 120.144 120.884 120.018 120.632C119.898 120.374 119.838 120.101 119.838 119.813C119.838 119.441 119.91 119.12 120.054 118.85C120.204 118.58 120.396 118.376 120.63 118.238C120.864 118.1 121.107 118.031 121.359 118.031C121.719 118.031 122.028 118.163 122.286 118.427C122.55 118.685 122.694 119.045 122.718 119.507L120.378 119.507C120.378 119.795 120.432 120.05 120.54 120.272C120.648 120.488 120.792 120.656 120.972 120.776C121.158 120.89 121.359 120.947 121.575 120.947C122.139 120.947 122.52 120.767 122.718 120.407C122.664 120.731 122.517 120.992 122.277 121.19C122.037 121.388 121.743 121.487 121.395 121.487ZM121.296 118.328C121.062 118.328 120.861 118.412 120.693 118.58C120.525 118.742 120.423 118.955 120.387 119.219L122.025 119.219C122.025 118.943 121.95 118.727 121.8 118.571C121.656 118.409 121.488 118.328 121.296 118.328ZM124.378 118.643C124.516 118.457 124.678 118.31 124.864 118.202C125.056 118.088 125.257 118.031 125.467 118.031C125.791 118.031 126.049 118.136 126.241 118.346C126.439 118.55 126.538 118.847 126.538 119.237L126.538 120.488C126.538 120.74 126.565 120.932 126.619 121.064C126.673 121.196 126.733 121.286 126.799 121.334C126.865 121.382 126.898 121.397 126.898 121.379L125.602 121.379C125.602 121.397 125.635 121.385 125.701 121.343C125.767 121.295 125.827 121.205 125.881 121.073C125.935 120.941 125.962 120.743 125.962 120.479L125.962 119.453C125.962 119.249 125.935 119.087 125.881 118.967C125.827 118.847 125.755 118.748 125.665 118.67C125.527 118.556 125.362 118.499 125.17 118.499C124.954 118.499 124.768 118.571 124.612 118.715C124.456 118.853 124.378 119.048 124.378 119.3L124.378 120.479C124.378 120.737 124.405 120.932 124.459 121.064C124.513 121.196 124.573 121.286 124.639 121.334C124.711 121.382 124.747 121.397 124.747 121.379L123.451 121.379C123.451 121.397 123.484 121.385 123.55 121.343C123.616 121.295 123.673 121.205 123.721 121.073C123.775 120.935 123.802 120.737 123.802 120.479L123.802 119.12C123.802 118.868 123.76 118.697 123.676 118.607C123.598 118.511 123.508 118.463 123.406 118.463L124.378 118.031L124.378 118.643ZM130.137 115.844C130.137 115.592 130.095 115.421 130.011 115.331C129.933 115.235 129.843 115.187 129.741 115.187L129.687 115.187L130.713 114.719L130.713 120.362C130.713 120.614 130.752 120.788 130.83 120.884C130.914 120.974 131.007 121.019 131.109 121.019L131.163 121.019L130.137 121.487L130.137 120.902C130.065 121.022 129.933 121.151 129.741 121.289C129.555 121.421 129.309 121.487 129.003 121.487C128.739 121.487 128.502 121.421 128.292 121.289C128.082 121.157 127.917 120.974 127.797 120.74C127.677 120.506 127.617 120.245 127.617 119.957C127.617 119.591 127.692 119.267 127.842 118.985C127.992 118.703 128.187 118.478 128.427 118.31C128.697 118.124 128.991 118.031 129.309 118.031C129.519 118.031 129.693 118.061 129.831 118.121C129.969 118.175 130.071 118.226 130.137 118.274L130.137 115.844ZM128.265 119.687C128.265 120.065 128.352 120.395 128.526 120.677C128.706 120.953 128.964 121.091 129.3 121.091C129.426 121.091 129.555 121.058 129.687 120.992C129.819 120.92 129.927 120.824 130.011 120.704C130.095 120.584 130.137 120.449 130.137 120.299L130.137 119.237C130.137 119.045 130.113 118.889 130.065 118.769C130.023 118.649 129.954 118.559 129.858 118.499C129.708 118.403 129.525 118.355 129.309 118.355C129.009 118.355 128.76 118.478 128.562 118.724C128.364 118.964 128.265 119.285 128.265 119.687ZM48.374 129.12C48.374 128.868 48.332 128.697 48.248 128.607C48.17 128.511 48.08 128.463 47.978 128.463L48.95 128.031L48.95 130.479C48.95 130.743 48.977 130.941 49.031 131.073C49.085 131.205 49.145 131.295 49.211 131.343C49.277 131.385 49.31 131.397 49.31 131.379L48.014 131.379C48.014 131.397 48.047 131.385 48.113 131.343C48.179 131.295 48.239 131.205 48.293 131.073C48.347 130.941 48.374 130.743 48.374 130.479L48.374 129.12ZM48.653 126.942C48.521 126.942 48.416 126.9 48.338 126.816C48.266 126.726 48.23 126.624 48.23 126.51C48.23 126.396 48.266 126.297 48.338 126.213C48.416 126.123 48.521 126.078 48.653 126.078C48.785 126.078 48.887 126.123 48.959 126.213C49.037 126.297 49.076 126.396 49.076 126.51C49.076 126.624 49.037 126.726 48.959 126.816C48.887 126.9 48.785 126.942 48.653 126.942ZM51.5837 131.487C51.2597 131.487 50.9807 131.409 50.7467 131.253C50.5127 131.091 50.3327 130.884 50.2067 130.632C50.0867 130.374 50.0267 130.101 50.0267 129.813C50.0267 129.441 50.0987 129.12 50.2427 128.85C50.3927 128.58 50.5847 128.376 50.8187 128.238C51.0527 128.1 51.2957 128.031 51.5477 128.031C51.9077 128.031 52.2167 128.163 52.4747 128.427C52.7387 128.685 52.8827 129.045 52.9067 129.507L50.5667 129.507C50.5667 129.795 50.6207 130.05 50.7287 130.272C50.8367 130.488 50.9807 130.656 51.1607 130.776C51.3467 130.89 51.5477 130.947 51.7637 130.947C52.3277 130.947 52.7087 130.767 52.9067 130.407C52.8527 130.731 52.7057 130.992 52.4657 131.19C52.2257 131.388 51.9317 131.487 51.5837 131.487ZM51.4847 128.328C51.2507 128.328 51.0497 128.412 50.8817 128.58C50.7137 128.742 50.6117 128.955 50.5757 129.219L52.2137 129.219C52.2137 128.943 52.1387 128.727 51.9887 128.571C51.8447 128.409 51.6767 128.328 51.4847 128.328ZM54.4222 131.469C54.3022 131.469 54.1942 131.43 54.0982 131.352C54.0082 131.268 53.9632 131.154 53.9632 131.01C53.9632 130.866 54.0082 130.755 54.0982 130.677C54.1882 130.599 54.2962 130.56 54.4222 130.56C54.5482 130.56 54.6562 130.599 54.7462 130.677C54.8362 130.755 54.8812 130.866 54.8812 131.01C54.8812 131.154 54.8332 131.268 54.7372 131.352C54.6472 131.43 54.5422 131.469 54.4222 131.469ZM59.6756 131.487L58.4517 128.724C58.3737 128.55 58.2927 128.418 58.2087 128.328C58.1307 128.232 58.0617 128.169 58.0017 128.139C57.9417 128.109 57.9117 128.097 57.9117 128.103L59.2707 128.103C59.2587 128.103 59.2317 128.112 59.1897 128.13C59.1477 128.142 59.1057 128.172 59.0637 128.22C59.0277 128.262 59.0097 128.325 59.0097 128.409C59.0097 128.511 59.0397 128.625 59.0997 128.751L59.8106 130.38L60.4767 128.841C60.5187 128.733 60.5397 128.622 60.5397 128.508C60.5397 128.4 60.5157 128.31 60.4677 128.238C60.4257 128.166 60.3537 128.121 60.2517 128.103L61.4487 128.103C61.4487 128.097 61.4157 128.109 61.3497 128.139C61.2897 128.169 61.2177 128.235 61.1337 128.337C61.0557 128.433 60.9747 128.574 60.8907 128.76L59.6756 131.487ZM63.3962 131.487C63.0722 131.487 62.7932 131.409 62.5592 131.253C62.3252 131.091 62.1452 130.884 62.0192 130.632C61.8992 130.374 61.8392 130.101 61.8392 129.813C61.8392 129.441 61.9112 129.12 62.0552 128.85C62.2052 128.58 62.3972 128.376 62.6312 128.238C62.8652 128.1 63.1082 128.031 63.3602 128.031C63.7202 128.031 64.0292 128.163 64.2872 128.427C64.5512 128.685 64.6952 129.045 64.7192 129.507L62.3792 129.507C62.3792 129.795 62.4332 130.05 62.5412 130.272C62.6492 130.488 62.7932 130.656 62.9732 130.776C63.1592 130.89 63.3602 130.947 63.5762 130.947C64.1402 130.947 64.5212 130.767 64.7192 130.407C64.6652 130.731 64.5182 130.992 64.2782 131.19C64.0382 131.388 63.7442 131.487 63.3962 131.487ZM63.2972 128.328C63.0632 128.328 62.8622 128.412 62.6942 128.58C62.5262 128.742 62.4242 128.955 62.3882 129.219L64.0262 129.219C64.0262 128.943 63.9512 128.727 63.8012 128.571C63.6572 128.409 63.4892 128.328 63.2972 128.328ZM66.3787 128.85C66.4687 128.658 66.6157 128.475 66.8197 128.301C67.0297 128.121 67.2397 128.031 67.4497 128.031C67.5817 128.031 67.6807 128.049 67.7467 128.085L67.7467 128.823C67.6147 128.661 67.4287 128.58 67.1887 128.58C66.9367 128.58 66.7387 128.691 66.5947 128.913C66.4507 129.129 66.3787 129.408 66.3787 129.75L66.3787 130.479C66.3787 130.815 66.4177 131.046 66.4957 131.172C66.5737 131.298 66.6487 131.367 66.7207 131.379L65.4517 131.379C65.5237 131.367 65.5987 131.301 65.6767 131.181C65.7607 131.055 65.8027 130.821 65.8027 130.479L65.8027 129.12C65.8027 128.868 65.7607 128.697 65.6767 128.607C65.5987 128.511 65.5087 128.463 65.4067 128.463L66.3787 128.031L66.3787 128.85ZM69.5855 131.109L68.5325 128.724C68.4305 128.496 68.3315 128.34 68.2355 128.256C68.1455 128.166 68.0735 128.115 68.0195 128.103L69.3335 128.103C69.2795 128.115 69.2255 128.142 69.1715 128.184C69.1175 128.226 69.0905 128.301 69.0905 128.409C69.0905 128.511 69.1205 128.625 69.1805 128.751L69.9095 130.434L70.5575 128.841C70.5995 128.733 70.6205 128.622 70.6205 128.508C70.6205 128.4 70.5965 128.31 70.5485 128.238C70.5065 128.166 70.4345 128.121 70.3325 128.103L71.5385 128.103C71.4725 128.115 71.3855 128.166 71.2775 128.256C71.1755 128.346 71.0735 128.514 70.9715 128.76L69.7475 131.604C69.5855 131.982 69.4655 132.279 69.3875 132.495C69.3095 132.717 69.2345 132.945 69.1625 133.179C69.1325 133.293 69.1025 133.389 69.0725 133.467L68.1545 133.467C68.3165 133.389 68.5145 133.17 68.7485 132.81C68.9885 132.45 69.2345 131.964 69.4865 131.352L69.5855 131.109ZM75.1677 128.562C75.2997 128.406 75.4617 128.28 75.6537 128.184C75.8457 128.082 76.0467 128.031 76.2567 128.031C76.5807 128.031 76.8387 128.136 77.0307 128.346C77.2287 128.55 77.3277 128.847 77.3277 129.237L77.3277 130.488C77.3277 130.74 77.3547 130.932 77.4087 131.064C77.4627 131.196 77.5227 131.286 77.5887 131.334C77.6547 131.382 77.6877 131.397 77.6877 131.379L76.3917 131.379C76.3917 131.397 76.4247 131.385 76.4907 131.343C76.5567 131.295 76.6167 131.205 76.6707 131.073C76.7247 130.941 76.7517 130.743 76.7517 130.479L76.7517 129.453C76.7517 129.249 76.7247 129.087 76.6707 128.967C76.6167 128.847 76.5447 128.748 76.4547 128.67C76.3167 128.556 76.1517 128.499 75.9597 128.499C75.7437 128.499 75.5577 128.571 75.4017 128.715C75.2457 128.853 75.1677 129.048 75.1677 129.3L75.1677 130.479C75.1677 130.737 75.1947 130.932 75.2487 131.064C75.3027 131.196 75.3627 131.286 75.4287 131.334C75.5007 131.382 75.5367 131.397 75.5367 131.379L74.2407 131.379C74.2407 131.397 74.2737 131.385 74.3397 131.343C74.4057 131.295 74.4627 131.205 74.5107 131.073C74.5647 130.935 74.5917 130.737 74.5917 130.479L74.5917 125.844C74.5917 125.592 74.5497 125.421 74.4657 125.331C74.3877 125.235 74.2977 125.187 74.1957 125.187L74.1417 125.187L75.1677 124.719L75.1677 128.562ZM78.4065 129.84C78.4065 129.528 78.4815 129.234 78.6315 128.958C78.7875 128.676 79.0005 128.451 79.2705 128.283C79.5405 128.115 79.8405 128.031 80.1705 128.031C80.4885 128.031 80.7765 128.106 81.0345 128.256C81.2925 128.4 81.4935 128.598 81.6375 128.85C81.7875 129.102 81.8625 129.378 81.8625 129.678C81.8625 129.99 81.7845 130.287 81.6285 130.569C81.4785 130.845 81.2685 131.067 80.9985 131.235C80.7285 131.403 80.4285 131.487 80.0985 131.487C79.7805 131.487 79.4925 131.415 79.2345 131.271C78.9765 131.121 78.7725 130.92 78.6225 130.668C78.4785 130.416 78.4065 130.14 78.4065 129.84ZM81.2145 129.939C81.2145 129.687 81.1665 129.438 81.0705 129.192C80.9745 128.946 80.8395 128.745 80.6655 128.589C80.4915 128.433 80.2905 128.355 80.0625 128.355C79.7445 128.355 79.4955 128.475 79.3155 128.715C79.1415 128.955 79.0545 129.243 79.0545 129.579C79.0545 129.831 79.1025 130.08 79.1985 130.326C79.2945 130.572 79.4295 130.773 79.6035 130.929C79.7775 131.085 79.9785 131.163 80.2065 131.163C80.5245 131.163 80.7705 131.043 80.9445 130.803C81.1245 130.563 81.2145 130.275 81.2145 129.939ZM83.8324 131.487C83.5384 131.487 83.3164 131.388 83.1664 131.19C83.0164 130.986 82.9414 130.743 82.9414 130.461L82.9414 128.463L82.4374 128.463L83.5174 127.239L83.5174 128.103L84.6694 128.103L84.6694 128.463L83.5174 128.463L83.5174 130.362C83.5174 130.59 83.5774 130.764 83.6974 130.884C83.8174 130.998 83.9554 131.055 84.1114 131.055C84.2314 131.055 84.3484 131.019 84.4624 130.947C84.5764 130.875 84.6694 130.776 84.7414 130.65C84.6514 131.208 84.3484 131.487 83.8324 131.487ZM87.6175 129.84C87.6175 129.528 87.6925 129.234 87.8425 128.958C87.9985 128.676 88.2115 128.451 88.4815 128.283C88.7515 128.115 89.0515 128.031 89.3815 128.031C89.6995 128.031 89.9875 128.106 90.2455 128.256C90.5035 128.4 90.7045 128.598 90.8485 128.85C90.9985 129.102 91.0735 129.378 91.0735 129.678C91.0735 129.99 90.9955 130.287 90.8395 130.569C90.6895 130.845 90.4795 131.067 90.2095 131.235C89.9395 131.403 89.6395 131.487 89.3095 131.487C88.9915 131.487 88.7035 131.415 88.4455 131.271C88.1875 131.121 87.9835 130.92 87.8335 130.668C87.6895 130.416 87.6175 130.14 87.6175 129.84ZM90.4255 129.939C90.4255 129.687 90.3775 129.438 90.2815 129.192C90.1855 128.946 90.0505 128.745 89.8765 128.589C89.7025 128.433 89.5015 128.355 89.2735 128.355C88.9555 128.355 88.7065 128.475 88.5265 128.715C88.3525 128.955 88.2655 129.243 88.2655 129.579C88.2655 129.831 88.3135 130.08 88.4095 130.326C88.5055 130.572 88.6405 130.773 88.8145 130.929C88.9885 131.085 89.1895 131.163 89.4175 131.163C89.7355 131.163 89.9815 131.043 90.1555 130.803C90.3355 130.563 90.4255 130.275 90.4255 129.939ZM92.7283 128.85C92.8183 128.658 92.9653 128.475 93.1693 128.301C93.3793 128.121 93.5893 128.031 93.7993 128.031C93.9313 128.031 94.0303 128.049 94.0963 128.085L94.0963 128.823C93.9643 128.661 93.7783 128.58 93.5383 128.58C93.2863 128.58 93.0883 128.691 92.9443 128.913C92.8003 129.129 92.7283 129.408 92.7283 129.75L92.7283 130.479C92.7283 130.815 92.7673 131.046 92.8453 131.172C92.9233 131.298 92.9983 131.367 93.0703 131.379L91.8013 131.379C91.8733 131.367 91.9483 131.301 92.0263 131.181C92.1103 131.055 92.1523 130.821 92.1523 130.479L92.1523 129.12C92.1523 128.868 92.1103 128.697 92.0263 128.607C91.9483 128.511 91.8583 128.463 91.7563 128.463L92.7283 128.031L92.7283 128.85ZM98.4178 131.487L97.1938 128.724C97.1158 128.55 97.0348 128.418 96.9508 128.328C96.8728 128.232 96.8038 128.169 96.7438 128.139C96.6838 128.109 96.6538 128.097 96.6538 128.103L98.0128 128.103C98.0008 128.103 97.9738 128.112 97.9318 128.13C97.8898 128.142 97.8478 128.172 97.8058 128.22C97.7698 128.262 97.7518 128.325 97.7518 128.409C97.7518 128.511 97.7818 128.625 97.8418 128.751L98.5528 130.38L99.2188 128.841C99.2608 128.733 99.2818 128.622 99.2818 128.508C99.2818 128.4 99.2578 128.31 99.2098 128.238C99.1678 128.166 99.0958 128.121 98.9938 128.103L100.191 128.103C100.191 128.097 100.158 128.109 100.092 128.139C100.032 128.169 99.9598 128.235 99.8758 128.337C99.7978 128.433 99.7168 128.574 99.6328 128.76L98.4178 131.487ZM102.138 131.487C101.814 131.487 101.535 131.409 101.301 131.253C101.067 131.091 100.887 130.884 100.761 130.632C100.641 130.374 100.581 130.101 100.581 129.813C100.581 129.441 100.653 129.12 100.797 128.85C100.947 128.58 101.139 128.376 101.373 128.238C101.607 128.1 101.85 128.031 102.102 128.031C102.462 128.031 102.771 128.163 103.029 128.427C103.293 128.685 103.437 129.045 103.461 129.507L101.121 129.507C101.121 129.795 101.175 130.05 101.283 130.272C101.391 130.488 101.535 130.656 101.715 130.776C101.901 130.89 102.102 130.947 102.318 130.947C102.882 130.947 103.263 130.767 103.461 130.407C103.407 130.731 103.26 130.992 103.02 131.19C102.78 131.388 102.486 131.487 102.138 131.487ZM102.039 128.328C101.805 128.328 101.604 128.412 101.436 128.58C101.268 128.742 101.166 128.955 101.13 129.219L102.768 129.219C102.768 128.943 102.693 128.727 102.543 128.571C102.399 128.409 102.231 128.328 102.039 128.328ZM105.121 128.85C105.211 128.658 105.358 128.475 105.562 128.301C105.772 128.121 105.982 128.031 106.192 128.031C106.324 128.031 106.423 128.049 106.489 128.085L106.489 128.823C106.357 128.661 106.171 128.58 105.931 128.58C105.679 128.58 105.481 128.691 105.337 128.913C105.193 129.129 105.121 129.408 105.121 129.75L105.121 130.479C105.121 130.815 105.16 131.046 105.238 131.172C105.316 131.298 105.391 131.367 105.463 131.379L104.194 131.379C104.266 131.367 104.341 131.301 104.419 131.181C104.503 131.055 104.545 130.821 104.545 130.479L104.545 129.12C104.545 128.868 104.503 128.697 104.419 128.607C104.341 128.511 104.251 128.463 104.149 128.463L105.121 128.031L105.121 128.85ZM108.328 131.109L107.275 128.724C107.173 128.496 107.074 128.34 106.978 128.256C106.888 128.166 106.816 128.115 106.762 128.103L108.076 128.103C108.022 128.115 107.968 128.142 107.914 128.184C107.86 128.226 107.833 128.301 107.833 128.409C107.833 128.511 107.863 128.625 107.923 128.751L108.652 130.434L109.3 128.841C109.342 128.733 109.363 128.622 109.363 128.508C109.363 128.4 109.339 128.31 109.291 128.238C109.249 128.166 109.177 128.121 109.075 128.103L110.281 128.103C110.215 128.115 110.128 128.166 110.02 128.256C109.918 128.346 109.816 128.514 109.714 128.76L108.49 131.604C108.328 131.982 108.208 132.279 108.13 132.495C108.052 132.717 107.977 132.945 107.905 133.179C107.875 133.293 107.845 133.389 107.815 133.467L106.897 133.467C107.059 133.389 107.257 133.17 107.491 132.81C107.731 132.45 107.977 131.964 108.229 131.352L108.328 131.109ZM114.567 131.487C114.243 131.487 113.958 131.409 113.712 131.253C113.472 131.097 113.289 130.89 113.163 130.632C113.037 130.374 112.974 130.101 112.974 129.813C112.974 129.513 113.037 129.228 113.163 128.958C113.295 128.682 113.484 128.46 113.73 128.292C113.976 128.118 114.267 128.031 114.603 128.031C115.005 128.031 115.296 128.118 115.476 128.292C115.656 128.466 115.782 128.649 115.854 128.841L115.26 129.129C115.224 128.913 115.134 128.73 114.99 128.58C114.852 128.43 114.681 128.355 114.477 128.355C114.183 128.355 113.955 128.469 113.793 128.697C113.631 128.925 113.55 129.204 113.55 129.534C113.55 129.768 113.601 129.996 113.703 130.218C113.811 130.434 113.961 130.611 114.153 130.749C114.351 130.887 114.582 130.956 114.846 130.956C115.062 130.956 115.266 130.908 115.458 130.812C115.656 130.71 115.812 130.575 115.926 130.407C115.86 130.743 115.704 131.007 115.458 131.199C115.212 131.391 114.915 131.487 114.567 131.487ZM116.577 129.84C116.577 129.528 116.652 129.234 116.802 128.958C116.958 128.676 117.171 128.451 117.441 128.283C117.711 128.115 118.011 128.031 118.341 128.031C118.659 128.031 118.947 128.106 119.205 128.256C119.463 128.4 119.664 128.598 119.808 128.85C119.958 129.102 120.033 129.378 120.033 129.678C120.033 129.99 119.955 130.287 119.799 130.569C119.649 130.845 119.439 131.067 119.169 131.235C118.899 131.403 118.599 131.487 118.269 131.487C117.951 131.487 117.663 131.415 117.405 131.271C117.147 131.121 116.943 130.92 116.793 130.668C116.649 130.416 116.577 130.14 116.577 129.84ZM119.385 129.939C119.385 129.687 119.337 129.438 119.241 129.192C119.145 128.946 119.01 128.745 118.836 128.589C118.662 128.433 118.461 128.355 118.233 128.355C117.915 128.355 117.666 128.475 117.486 128.715C117.312 128.955 117.225 129.243 117.225 129.579C117.225 129.831 117.273 130.08 117.369 130.326C117.465 130.572 117.6 130.773 117.774 130.929C117.948 131.085 118.149 131.163 118.377 131.163C118.695 131.163 118.941 131.043 119.115 130.803C119.295 130.563 119.385 130.275 119.385 129.939ZM121.112 125.844C121.112 125.592 121.07 125.421 120.986 125.331C120.908 125.235 120.818 125.187 120.716 125.187L120.662 125.187L121.688 124.719L121.688 130.479C121.688 130.743 121.715 130.941 121.769 131.073C121.823 131.205 121.883 131.295 121.949 131.343C122.015 131.385 122.048 131.397 122.048 131.379L120.752 131.379C120.752 131.397 120.785 131.385 120.851 131.343C120.917 131.295 120.977 131.205 121.031 131.073C121.085 130.935 121.112 130.737 121.112 130.479L121.112 125.844ZM125.285 125.844C125.285 125.592 125.243 125.421 125.159 125.331C125.081 125.235 124.991 125.187 124.889 125.187L124.835 125.187L125.861 124.719L125.861 130.362C125.861 130.614 125.9 130.788 125.978 130.884C126.062 130.974 126.155 131.019 126.257 131.019L126.311 131.019L125.285 131.487L125.285 130.902C125.213 131.022 125.081 131.151 124.889 131.289C124.703 131.421 124.457 131.487 124.151 131.487C123.887 131.487 123.65 131.421 123.44 131.289C123.23 131.157 123.065 130.974 122.945 130.74C122.825 130.506 122.765 130.245 122.765 129.957C122.765 129.591 122.84 129.267 122.99 128.985C123.14 128.703 123.335 128.478 123.575 128.31C123.845 128.124 124.139 128.031 124.457 128.031C124.667 128.031 124.841 128.061 124.979 128.121C125.117 128.175 125.219 128.226 125.285 128.274L125.285 125.844ZM123.413 129.687C123.413 130.065 123.5 130.395 123.674 130.677C123.854 130.953 124.112 131.091 124.448 131.091C124.574 131.091 124.703 131.058 124.835 130.992C124.967 130.92 125.075 130.824 125.159 130.704C125.243 130.584 125.285 130.449 125.285 130.299L125.285 129.237C125.285 129.045 125.261 128.889 125.213 128.769C125.171 128.649 125.102 128.559 125.006 128.499C124.856 128.403 124.673 128.355 124.457 128.355C124.157 128.355 123.908 128.478 123.71 128.724C123.512 128.964 123.413 129.285 123.413 129.687Z" fill="#304E09"/>
<path d="M86.64 88.06L86.53 88.06L86.33 87.34C86.21 86.83 86.1 86.47 86.1 86.21C86.1 85.94 86.27 85.71 86.57 85.71C86.87 85.71 87.03 85.94 87.03 86.21C87.03 86.43 86.96 86.81 86.82 87.34L86.64 88.06ZM86.59 88.11L86.56 88L87.18 87.61C87.63 87.33 87.95 87.12 88.17 87.04C88.46 86.95 88.72 87.04 88.81 87.33C88.9 87.62 88.74 87.84 88.47 87.93C88.26 88 87.89 88.04 87.33 88.07L86.59 88.11ZM86.53 88.09L86.62 88.02L87.19 88.5C87.6 88.83 87.9 89.08 88.04 89.27C88.21 89.5 88.2 89.78 87.96 89.96C87.71 90.14 87.45 90.05 87.28 89.82C87.16 89.65 87 89.3 86.8 88.78L86.53 88.09ZM86.53 88.02L86.62 88.09L86.35 88.77C86.15 89.27 86.02 89.63 85.88 89.83C85.71 90.06 85.44 90.14 85.2 89.96C84.96 89.78 84.96 89.5 85.12 89.27C85.25 89.1 85.54 88.83 85.96 88.5L86.53 88.02ZM86.59 88L86.56 88.11L85.82 88.07C85.29 88.03 84.92 88.01 84.68 87.94C84.41 87.85 84.25 87.63 84.34 87.33C84.43 87.05 84.69 86.96 84.97 87.05C85.18 87.11 85.51 87.31 85.97 87.6L86.59 88Z" fill="#304E09"/>
</g>
<defs>
<clipPath id="clip0_473_366">
<rect width="348" height="244" fill="white"/>
</clipPath>
</defs>
</svg>
